<?xml version="1.0" encoding="UTF-8" standalone="no"?>
<!-- Generator: Adobe Illustrator 21.1.0, SVG Export Plug-In . SVG Version: 6.00 Build 0)  -->

<svg
   xmlns:dc="http://purl.org/dc/elements/1.1/"
   xmlns:cc="http://creativecommons.org/ns#"
   xmlns:rdf="http://www.w3.org/1999/02/22-rdf-syntax-ns#"
   xmlns:svg="http://www.w3.org/2000/svg"
   xmlns="http://www.w3.org/2000/svg"
   xmlns:sodipodi="http://sodipodi.sourceforge.net/DTD/sodipodi-0.dtd"
   xmlns:inkscape="http://www.inkscape.org/namespaces/inkscape"
   version="1.1"
   id="Layer_1"
   x="0px"
   y="0px"
   viewBox="0 0 22.000001 24.392021"
   xml:space="preserve"
   inkscape:version="0.91 r13725"
   sodipodi:docname="aircon.svg"
   width="22"
   height="24.392021"><metadata
     id="metadata14"><rdf:RDF><cc:Work
         rdf:about=""><dc:format>image/svg+xml</dc:format><dc:type
           rdf:resource="http://purl.org/dc/dcmitype/StillImage" /><dc:title></dc:title></cc:Work></rdf:RDF></metadata><defs
     id="defs12" /><sodipodi:namedview
     pagecolor="#ffffff"
     bordercolor="#666666"
     borderopacity="1"
     objecttolerance="10"
     gridtolerance="10"
     guidetolerance="10"
     inkscape:pageopacity="0"
     inkscape:pageshadow="2"
     inkscape:window-width="1920"
     inkscape:window-height="1051"
     id="namedview10"
     showgrid="false"
     fit-margin-top="0"
     fit-margin-left="0"
     fit-margin-right="0"
     fit-margin-bottom="0"
     inkscape:zoom="1.1463621"
     inkscape:cx="-6.5767424"
     inkscape:cy="84.168526"
     inkscape:window-x="0"
     inkscape:window-y="0"
     inkscape:window-maximized="1"
     inkscape:current-layer="Layer_1" /><style
     type="text/css"
     id="style3">
	.st0{display:none;}
	.st1{display:inline;fill:#0065B6;}
	.st2{fill:#0065B6;}
</style><g
     id="Layer_3"
     class="st0"
     style="display:none"
     transform="translate(-48.85,-25.103989)"><path
       class="st1"
       d="m 43.4,73.2 c -0.5,0 -0.9,-0.4 -0.9,-0.9 l 0,-7.4 c 0,-0.5 0.4,-0.9 0.9,-0.9 l 30.8,0 c 0.5,0 0.9,0.4 0.9,0.9 l 0,7.4 c 0,0.5 -0.4,0.9 -0.9,0.9 l -30.8,0 z m 49.7,-7.7 c -0.5,0 -1,-0.1 -1.5,-0.4 L 82.2,60 c -0.6,-0.4 -1.1,-1 -1.3,-1.7 -0.2,-0.7 -0.1,-1.5 0.3,-2.1 0.5,-0.8 1.4,-1.3 2.4,-1.3 0.5,0 1,0.1 1.5,0.4 l 3.5,2 0,-0.1 c 2.2,-4.5 3.1,-9.3 3.1,-14.2 0,-0.8 0,-1.7 -0.1,-2.5 l 0,-0.1 -0.1,0 c -0.2,0 -4.1,0.7 -4.4,0.7 -1.4,0 -2.5,-1 -2.7,-2.3 -0.1,-0.7 0,-1.5 0.5,-2.1 0.4,-0.6 1.1,-1 1.8,-1.1 l 4.1,-0.7 0,0 C 89.3,29.2 86.4,24 82.2,19.8 76.7,14.3 69.5,10.9 61.7,10.3 l -0.2,0 0.1,4.3 c 0,0.7 -0.3,1.4 -0.8,2 -0.5,0.5 -1.2,0.8 -2,0.8 -1.5,0 -2.8,-1.2 -2.8,-2.8 l 0,-4.3 -0.1,0 c -5.8,0.5 -11.4,2.6 -16.2,6 l -0.2,0.1 2.7,3.1 c 1,1.2 0.8,2.8 -0.3,3.9 -0.6,0.5 -1.2,0.6 -1.7,0.6 -0.9,0 -1.7,-0.4 -2.2,-1 l -2.6,-3.2 0,0.1 c -4.1,4.2 -7,9.4 -8.4,15 l -0.1,0.2 4,0.6 c 1.5,0.3 2.5,1.7 2.3,3.2 -0.2,1.3 -1.4,2.3 -2.7,2.3 -0.3,0 -3.2,-0.5 -4.2,-0.7 l -0.1,0 0,0.1 c 0,0.8 -0.1,1.5 -0.1,2.3 0,4.9 1.1,9.7 3.2,14.2 l 0.1,0.2 3.4,-2.1 c 0.4,-0.3 0.9,-0.4 1.4,-0.4 1,0 1.9,0.5 2.4,1.4 0.4,0.6 0.5,1.4 0.3,2.1 -0.2,0.7 -0.6,1.3 -1.3,1.7 l -9.1,5.2 c -0.4,0.2 -0.9,0.4 -1.4,0.4 -1,0 -1.9,-0.5 -2.4,-1.4 C 19.2,58.4 17,50.2 17,42.9 17,19.2 37,1 58.6,1 81.8,1 101,18.9 101,43 101,50 99.5,57.4 95.7,64.2 95,65 94.1,65.5 93.1,65.5 Z M 59,50 c -2,0 -3.8,-0.8 -5.2,-2.2 -1.4,-1.4 -2.1,-3.3 -2.1,-5.2 0,-4 3.4,-7.3 7.4,-7.3 0.2,0 0.5,0 0.7,0 L 75.3,20.7 c 0.4,-0.4 0.9,-0.7 1.5,-0.7 0.5,0 0.9,0.2 1.3,0.5 0.8,0.7 0.9,1.9 0.2,2.7 L 66.1,40.9 c 0.2,0.5 0.3,1.2 0.3,1.8 0,4 -3.4,7.3 -7.4,7.3 l 0,0 z"
       id="path6"
       inkscape:connector-curvature="0"
       style="display:inline;fill:#0065b6" /></g><path
     class="st2"
     d="m 21.352829,16.950388 -1.860409,-1.068012 1.481437,-0.826848 c 0.51678,-0.275616 0.68904,-0.930204 0.413424,-1.412533 -0.275616,-0.51678 -0.930204,-0.68904 -1.446985,-0.413424 l -2.549448,1.412533 -2.377189,-1.378081 0.241164,-0.378972 1.343629,0 c 0.378972,0 0.654588,-0.275616 0.654588,-0.620136 0,-0.34452 -0.275616,-0.654588 -0.654588,-0.654588 l -1.343629,0 -0.206712,-0.378972 2.446093,-1.343629 2.514996,1.446985 c 0.172261,0.103356 0.344521,0.137808 0.516781,0.137808 0.378972,0 0.723492,-0.17226 0.930204,-0.51678 0.310068,-0.482328 0.137808,-1.136917 -0.378972,-1.446985 l -1.481437,-0.8613 1.860409,-1.03356 c 0.51678,-0.275616 0.68904,-0.930205 0.413424,-1.412533 -0.275616,-0.51678 -0.930204,-0.68904 -1.446984,-0.413424 l -1.860409,1.033561 0.03445,-1.653697 c 0,-0.585684 -0.482328,-1.068012 -1.068012,-1.068012 -0.585684,0 -1.068012,0.447876 -1.102465,1.03356 l -0.03445,2.859517 -2.41164,1.309176 -0.241164,-0.413424 0.654588,-1.102464 c 0.17226,-0.310068 0.0689,-0.68904 -0.241164,-0.895752 -0.310068,-0.172261 -0.723492,-0.0689 -0.895752,0.241164 l -0.654589,1.102464 -0.482328,0 0.03445,-2.687257 2.549449,-1.412532 c 0.51678,-0.275616 0.68904,-0.930204 0.413424,-1.412533 -0.275616,-0.51678 -0.930204,-0.68904 -1.446984,-0.413424 l -1.481437,0.826849 0.03445,-2.067121 C 12.223042,0.482328 11.740714,0 11.15503,0 10.569346,0 10.087018,0.447876 10.052566,1.03356 l 0,2.101573 L 8.605581,2.308284 C 8.088801,1.998216 7.434213,2.170476 7.124145,2.687256 6.814077,3.169585 6.986337,3.824173 7.503117,4.134241 l 2.514997,1.412532 -0.03445,2.687257 -0.482328,0 L 8.881199,7.131566 C 8.708939,6.821498 8.295515,6.718141 7.985447,6.890402 7.675379,7.062662 7.537571,7.441634 7.744283,7.751702 L 8.364419,8.819714 8.123255,9.233138 5.780519,7.88951 5.814969,5.029993 c 0,-0.585684 -0.482329,-1.068012 -1.068013,-1.068012 -0.585684,0 -1.068012,0.447876 -1.102464,1.03356 L 3.610042,6.649237 1.749633,5.581225 C 1.232853,5.271157 0.57826497,5.443417 0.26819697,5.960197 c -0.310068,0.482328 -0.137808,1.136917 0.378972,1.446985 L 2.473126,8.475194 0.99168897,9.26759 c -0.51678,0.275616 -0.68904,0.930204 -0.413424,1.412533 0.206712,0.34452 0.55123203,0.51678 0.93020403,0.551232 0.17226,0 0.378972,-0.03445 0.551233,-0.137808 l 2.549448,-1.412533 2.377189,1.378081 -0.206712,0.378972 -1.343629,0 c -0.378972,0 -0.654588,0.275616 -0.654588,0.654588 0,0.34452 0.275616,0.654588 0.654588,0.654588 l 1.343629,0 0.206712,0.413424 L 4.5747,14.504296 2.059704,13.057311 c -0.516781,-0.310068 -1.17136903,-0.137808 -1.48143703,0.378972 -0.310068,0.482328 -0.137808,1.136917 0.378972,1.446985 l 1.44698503,0.826848 -1.86040903,1.03356 c -0.51678,0.275616 -0.68904,0.930205 -0.413424,1.412533 0.206712,0.34452 0.551232,0.51678 0.93020403,0.551232 0.17226,0 0.378972,-0.03445 0.551232,-0.137808 l 1.860409,-1.033561 0,1.619245 c 0,0.585684 0.482328,1.068012 1.068012,1.068012 0.585684,0 1.068013,-0.447876 1.102465,-1.03356 l 0.03445,-2.859517 2.377188,-1.309176 0.241164,0.447876 -0.654588,1.03356 c -0.17226,0.310068 -0.0689,0.68904 0.241164,0.895752 0.103356,0.0689 0.206712,0.103356 0.34452,0.103356 0.241164,0 0.447876,-0.103356 0.585684,-0.310068 l 0.654589,-1.068012 0.51678,0 -0.03445,2.652805 -2.549449,1.412532 c -0.51678,0.275616 -0.68904,0.930204 -0.413424,1.412533 0.206712,0.34452 0.551232,0.51678 0.930204,0.551232 0.17226,0 0.378972,-0.03445 0.551232,-0.137808 l 1.481437,-0.792397 -0.03445,2.101573 c 0,0.585684 0.482328,1.068012 1.068012,1.068012 0.585684,0 1.068012,-0.447876 1.102464,-1.03356 l 0.03445,-2.101573 1.446985,0.861301 c 0.51678,0.310068 1.171368,0.137808 1.481436,-0.378972 0.310068,-0.482329 0.137808,-1.136917 -0.378972,-1.446985 l -2.514997,-1.446984 0.03445,-2.618353 0.51678,0 0.620137,1.068012 c 0.103356,0.206712 0.34452,0.310068 0.585684,0.34452 0.103356,0 0.241164,-0.03445 0.34452,-0.0689 0.310068,-0.17226 0.447876,-0.551232 0.241164,-0.8613 l -0.620136,-1.102464 0.241164,-0.413424 2.342737,1.37808 -0.03445,2.859517 c 0,0.585684 0.482329,1.068012 1.068013,1.068012 0.585684,0 1.068012,-0.447876 1.102464,-1.03356 l 0.03445,-1.653696 1.825957,1.068012 c 0.17226,0.103356 0.34452,0.137808 0.551232,0.137808 0.378972,0 0.723492,-0.17226 0.930204,-0.51678 0.103356,-0.620136 -0.0689,-1.274725 -0.585684,-1.550341 z m -9.508755,-3.479653 -1.688148,0 -0.654588,-1.309176 0.654588,-1.309176 1.688148,0 0.654588,1.309176 -0.654588,1.309176 z"
     id="path8"
     inkscape:connector-curvature="0"
     style="fill:#0065b6" /></svg>