<?xml version="1.0" encoding="UTF-8" standalone="no"?>
<!-- Svg Vector Icons : http://www.onlinewebfonts.com/icon -->

<svg
   xmlns:dc="http://purl.org/dc/elements/1.1/"
   xmlns:cc="http://creativecommons.org/ns#"
   xmlns:rdf="http://www.w3.org/1999/02/22-rdf-syntax-ns#"
   xmlns:svg="http://www.w3.org/2000/svg"
   xmlns="http://www.w3.org/2000/svg"
   xmlns:sodipodi="http://sodipodi.sourceforge.net/DTD/sodipodi-0.dtd"
   xmlns:inkscape="http://www.inkscape.org/namespaces/inkscape"
   version="1.1"
   x="0px"
   y="0px"
   viewBox="0 0 24 24"
   enable-background="new 0 0 1000 1000"
   xml:space="preserve"
   id="svg2"
   inkscape:version="0.91 r13725"
   sodipodi:docname="battery.svg"
   width="24"
   height="24"><defs
     id="defs50" /><sodipodi:namedview
     pagecolor="#1a2823"
     bordercolor="#666666"
     borderopacity="1"
     objecttolerance="10"
     gridtolerance="10"
     guidetolerance="10"
     inkscape:pageopacity="1"
     inkscape:pageshadow="2"
     inkscape:window-width="1920"
     inkscape:window-height="1051"
     id="namedview48"
     showgrid="false"
     fit-margin-top="0"
     fit-margin-left="0"
     fit-margin-right="0"
     fit-margin-bottom="0"
     inkscape:zoom="14.481547"
     inkscape:cx="10.170532"
     inkscape:cy="11.90281"
     inkscape:window-x="0"
     inkscape:window-y="0"
     inkscape:window-maximized="1"
     inkscape:current-layer="g10"
     showborder="false" /><metadata
     id="metadata4"> Svg Vector Icons : http://www.onlinewebfonts.com/icon <rdf:RDF><cc:Work
     rdf:about=""><dc:format>image/svg+xml</dc:format><dc:type
       rdf:resource="http://purl.org/dc/dcmitype/StillImage" /><dc:title></dc:title></cc:Work></rdf:RDF></metadata><g
     id="g6"
     transform="translate(-488,-488.05)"><g
       id="g8"><g
         id="g10"><path
           d="m 508.73061,494.13274 0,-1.76274 -4.87347,0 0,1.76274 -6.97224,0 0,-1.76274 -4.87347,0 0,1.76274 -4.01143,0 0,13.59726 24,0 0,-13.59726 z m -3.88898,-1.02044 2.89959,0 0,0.80309 -2.89959,0 z m -11.84571,0 2.89959,0 0,0.80309 -2.89959,0 z"
           id="path12"
           inkscape:connector-curvature="0"
           style="fill:#ffffff"
           sodipodi:nodetypes="ccccccccccccccccccccccc" /><rect
           x="504.3494"
           y="498.44843"
           width="3.8865306"
           height="0.74230486"
           id="rect14"
           style="fill:#333333" /><polygon
           points="293.4,353.9 253.1,353.9 253.1,413.1 193.9,413.1 193.9,453.4 253.1,453.4 253.1,512.6 293.4,512.6 293.4,453.4 352.6,453.4 352.6,413.1 293.4,413.1 "
           id="polygon16"
           style="fill:#ff0000"
           transform="matrix(0.0244898,0,0,0.01841947,487.7551,490.83934)" /></g></g><g
       id="g18" /><g
       id="g20" /><g
       id="g22" /><g
       id="g24" /><g
       id="g26" /><g
       id="g28" /><g
       id="g30" /><g
       id="g32" /><g
       id="g34" /><g
       id="g36" /><g
       id="g38" /><g
       id="g40" /><g
       id="g42" /><g
       id="g44" /><g
       id="g46" /></g></svg>