<?xml version="1.0" encoding="UTF-8" standalone="no"?>
<!-- Created with Inkscape (http://www.inkscape.org/) -->

<svg
   xmlns:dc="http://purl.org/dc/elements/1.1/"
   xmlns:cc="http://creativecommons.org/ns#"
   xmlns:rdf="http://www.w3.org/1999/02/22-rdf-syntax-ns#"
   xmlns:svg="http://www.w3.org/2000/svg"
   xmlns="http://www.w3.org/2000/svg"
   xmlns:sodipodi="http://sodipodi.sourceforge.net/DTD/sodipodi-0.dtd"
   xmlns:inkscape="http://www.inkscape.org/namespaces/inkscape"
   height="22"
   id="svg2"
   inkscape:output_extension="org.inkscape.output.svg.inkscape"
   inkscape:version="0.91 r13725"
   sodipodi:docname="car_wash.svg"
   sodipodi:version="0.32"
   version="1.0"
   width="22"
   inkscape:export-xdpi="96"
   inkscape:export-ydpi="96">
  <defs
     id="defs22">
    <inkscape:perspective
       id="perspective24"
       inkscape:persp3d-origin="290 : 193.33333 : 1"
       inkscape:vp_x="0 : 290 : 1"
       inkscape:vp_y="0 : 1000 : 0"
       inkscape:vp_z="580 : 290 : 1"
       sodipodi:type="inkscape:persp3d" />
  </defs>
  <metadata
     id="metadata10">
    <rdf:RDF>
      <cc:Work
         rdf:about="">
        <dc:format>image/svg+xml</dc:format>
        <dc:type
           rdf:resource="http://purl.org/dc/dcmitype/StillImage" />
        <cc:license
           rdf:resource="http://web.resource.org/cc/PublicDomain" />
        <dc:language>en</dc:language>
        <dc:title></dc:title>
      </cc:Work>
    </rdf:RDF>
  </metadata>
  <sodipodi:namedview
     bordercolor="#666666"
     borderopacity="1.0"
     gridtolerance="10.0"
     guidetolerance="10.0"
     id="base"
     inkscape:current-layer="svg2"
     inkscape:cx="-255.65372"
     inkscape:cy="-75.338717"
     inkscape:pageopacity="0.0"
     inkscape:pageshadow="2"
     inkscape:window-height="1051"
     inkscape:window-width="1920"
     inkscape:window-x="0"
     inkscape:window-y="0"
     inkscape:zoom="1"
     objecttolerance="10.0"
     pagecolor="#ffffff"
     showgrid="false"
     inkscape:window-maximized="1"
     inkscape:measure-start="0,0"
     inkscape:measure-end="0,0"
     fit-margin-top="0"
     fit-margin-left="0"
     fit-margin-right="0"
     fit-margin-bottom="0" />
  <g
     id="g1327"
     transform="matrix(0.03794254,0,0,0.03730205,0,0.33273159)">
    <path
       d="M 66.275,1.768 C 24.94,1.768 1.704,23.139 1.704,66.804 l 0,450.123 c 0,40.844 20.894,62.229 62.192,62.229 l 452.024,0 c 41.307,0 62.229,-20.316 62.229,-62.229 l 0,-450.123 c 0,-42.601 -20.922,-65.036 -63.522,-65.036 -0.003,0 -448.494,-0.143 -448.352,0 z"
       id="path1329"
       style="fill:#111111;fill-opacity:0;stroke:#eeeeee;stroke-width:3.40799999;stroke-opacity:0"
       inkscape:connector-curvature="0" />
  </g>
  <g
     id="g2319"
     transform="matrix(0.04083073,0,0,0.04083073,-50.428395,87.781268)">
    <path
       d=""
       id="path2323"
       style="fill:#0089cd;stroke:none"
       inkscape:connector-curvature="0" />
  </g>
  <g
     id="g2325"
     transform="matrix(0.04083073,0,0,0.04083073,-50.428395,87.781268)">
    <path
       d=""
       id="path2329"
       style="fill:#0089cd;stroke:none"
       inkscape:connector-curvature="0" />
  </g>
  <path
     d="m 8.170457,7.9868976 c -1.05067,0 -1.608027,0.563915 -1.865337,1.224001 L 4.939246,12.678178 c -0.541457,0.0682 -1.501297,0.69309 -1.501297,1.87678 l 0,4.40926 1.329471,0 0,1.4101 c 0,1.73484 2.497306,1.71441 2.497307,0 l 0,-1.4101 4.492242,0 0.0014,0 4.49224,0 0,1.4101 c 0,1.71441 2.4973,1.73484 2.49731,0 l 0,-1.4101 1.32947,0 0,-4.40926 c 0,-1.18369 -0.95983,-1.80853 -1.5013,-1.87678 l -1.36729,-3.4672794 c -0.25731,-0.660086 -0.81466,-1.224001 -1.86534,-1.224001 l -1.93086,0 -3.288004,0 -1.954158,0 z m -0.01602,1.262649 3.599617,0 0.0029,0 0.0014,0 3.601075,0 c 0.45026,0.0043 0.6431,0.280961 0.77176,0.664261 l 1.0295,2.7285704 -5.402335,0 -0.0014,0 -0.0029,0 -5.400881,0 1.029502,-2.7285704 c 0.128655,-0.3833 0.321449,-0.660133 0.771762,-0.664261 z m -2.09832,4.7199014 c 0.637121,0 1.153275,0.52261 1.153275,1.16817 0,0.6456 -0.516154,1.16959 -1.153275,1.16959 -0.637074,0 -1.153276,-0.52399 -1.153276,-1.16959 0,-0.64556 0.516202,-1.16817 1.153276,-1.16817 z m 11.403162,0 c 0.63712,0 1.15328,0.52261 1.15327,1.16817 0,0.6456 -0.51615,1.16959 -1.15327,1.16959 -0.63708,0 -1.15474,-0.52399 -1.15474,-1.16959 0,-0.64556 0.51766,-1.16817 1.15474,-1.16817 z"
     id="path2301"
     style="fill:#0089cd;stroke:none;stroke-width:9.57638168"
     inkscape:connector-curvature="0" />
  <path
     style="fill:#0089cd;fill-opacity:1;stroke:none;stroke-width:6.18657589px;stroke-linecap:butt;stroke-linejoin:miter;stroke-opacity:1"
     d="m 11.750636,2.8411136 c 0.506788,0.0064 0.816242,-0.462392 0.816242,-0.796308 0,-0.641806 -0.580827,-1.57421901 -0.816242,-2.04426200564 C 11.589181,0.38086359 10.943365,1.4029996 10.943365,2.0448056 c 0,0.28549 0.300484,0.79037 0.807271,0.796308 z"
     id="path833"
     inkscape:connector-curvature="0"
     sodipodi:nodetypes="zscsz" />
  <path
     style="fill:#0089cd;fill-opacity:1;stroke:none;stroke-width:6.18657589px;stroke-linecap:butt;stroke-linejoin:miter;stroke-opacity:1"
     d="m 11.750635,6.5930606 c 0.506789,0.0064 0.816241,-0.462392 0.816241,-0.796309 0,-0.641805 -0.580826,-1.574218 -0.816241,-2.044261 -0.161454,0.380331 -0.807272,1.402456 -0.807272,2.044261 0,0.285491 0.300486,0.790371 0.807272,0.796309 z"
     id="path833-3"
     inkscape:connector-curvature="0"
     sodipodi:nodetypes="zscsz" />
  <path
     style="fill:#0089cd;fill-opacity:1;stroke:none;stroke-width:6.18657589px;stroke-linecap:butt;stroke-linejoin:miter;stroke-opacity:1"
     d="m 14.356369,2.7672026 c 0.48714,-0.137509 0.64663,-0.673514 0.54901,-0.993353 -0.18762,-0.614724 -1.01653,-1.34367701 -1.37942,-1.72738101 -0.04347,0.409902 -0.363224,1.57138901 -0.175596,2.18611301 0.08346,0.273456 0.518866,0.672121 1.006006,0.534621 z"
     id="path833-3-0"
     inkscape:connector-curvature="0"
     sodipodi:nodetypes="zscsz" />
  <path
     style="fill:#0089cd;fill-opacity:1;stroke:none;stroke-width:6.18657589px;stroke-linecap:butt;stroke-linejoin:miter;stroke-opacity:1"
     d="m 15.411959,6.4868656 c 0.4782,-0.165069 0.60579,-0.709267 0.48946,-1.022987 -0.22358,-0.602988 -1.0941,-1.283451 -1.47903,-1.645799 -0.0192,0.411689 -0.26988,1.589456 -0.0463,2.192444 0.0995,0.268221 0.55765,0.641391 1.03586,0.476342 z"
     id="path833-3-0-1"
     inkscape:connector-curvature="0"
     sodipodi:nodetypes="zscsz" />
  <path
     style="fill:#0089cd;fill-opacity:1;stroke:none;stroke-width:6.18657589px;stroke-linecap:butt;stroke-linejoin:miter;stroke-opacity:1"
     d="M 9.153871,2.7672026 C 8.66673,2.6296936 8.507244,2.0936886 8.604862,1.7738496 8.792486,1.1591256 9.621388,0.43017259 9.984283,0.04646859 c 0.04347,0.409902 0.363222,1.57138901 0.175594,2.18611301 -0.08346,0.273456 -0.518863,0.672121 -1.006006,0.534621 z"
     id="path833-3-0-0"
     inkscape:connector-curvature="0"
     sodipodi:nodetypes="zscsz" />
  <path
     style="fill:#0089cd;fill-opacity:1;stroke:none;stroke-width:6.18657589px;stroke-linecap:butt;stroke-linejoin:miter;stroke-opacity:1"
     d="M 8.098284,6.4868656 C 7.620076,6.3217966 7.492491,5.7775986 7.608817,5.4638786 7.832401,4.8608906 8.702924,4.1804276 9.08785,3.8180796 c 0.0192,0.411689 0.26988,1.589456 0.04629,2.192444 -0.09946,0.268221 -0.557652,0.641391 -1.035858,0.476342 z"
     id="path833-3-0-1-1"
     inkscape:connector-curvature="0"
     sodipodi:nodetypes="zscsz" />
</svg>
