<?xml version="1.0" encoding="UTF-8" standalone="no"?>
<!-- Created with Inkscape (http://www.inkscape.org/) -->

<svg
   xmlns:dc="http://purl.org/dc/elements/1.1/"
   xmlns:cc="http://creativecommons.org/ns#"
   xmlns:rdf="http://www.w3.org/1999/02/22-rdf-syntax-ns#"
   xmlns:svg="http://www.w3.org/2000/svg"
   xmlns="http://www.w3.org/2000/svg"
   xmlns:sodipodi="http://sodipodi.sourceforge.net/DTD/sodipodi-0.dtd"
   xmlns:inkscape="http://www.inkscape.org/namespaces/inkscape"
   height="22"
   id="svg2"
   inkscape:output_extension="org.inkscape.output.svg.inkscape"
   inkscape:version="0.91 r13725"
   sodipodi:docname="communication.svg"
   sodipodi:version="0.32"
   version="1.0"
   width="22"
   inkscape:export-filename="C:\Users\jeremy\Pictures\svg\communication.png"
   inkscape:export-xdpi="96"
   inkscape:export-ydpi="96">
  <defs
     id="defs22">
    <inkscape:perspective
       id="perspective24"
       inkscape:persp3d-origin="290 : 193.33333 : 1"
       inkscape:vp_x="0 : 290 : 1"
       inkscape:vp_y="0 : 1000 : 0"
       inkscape:vp_z="580 : 290 : 1"
       sodipodi:type="inkscape:persp3d" />
  </defs>
  <metadata
     id="metadata10">
    <rdf:RDF>
      <cc:Work
         rdf:about="">
        <dc:format>image/svg+xml</dc:format>
        <dc:type
           rdf:resource="http://purl.org/dc/dcmitype/StillImage" />
        <cc:license
           rdf:resource="http://web.resource.org/cc/PublicDomain" />
        <dc:language>en</dc:language>
        <dc:title></dc:title>
      </cc:Work>
    </rdf:RDF>
  </metadata>
  <sodipodi:namedview
     bordercolor="#666666"
     borderopacity="1.0"
     gridtolerance="10.0"
     guidetolerance="10.0"
     id="base"
     inkscape:current-layer="svg2"
     inkscape:cx="105.28693"
     inkscape:cy="-36.83915"
     inkscape:pageopacity="0.0"
     inkscape:pageshadow="2"
     inkscape:window-height="1051"
     inkscape:window-width="1920"
     inkscape:window-x="0"
     inkscape:window-y="0"
     inkscape:zoom="4"
     objecttolerance="10.0"
     pagecolor="#ffffff"
     showgrid="false"
     inkscape:window-maximized="1"
     inkscape:measure-start="0,0"
     inkscape:measure-end="0,0"
     fit-margin-top="0"
     fit-margin-left="0"
     fit-margin-right="0"
     fit-margin-bottom="0"
     showborder="false" />
  <g
     id="g1327"
     transform="matrix(0.03794065,0,0,0.03794065,0,-0.0382058)">
    <path
       d="M 66.275,1.768 C 24.94,1.768 1.704,23.139 1.704,66.804 l 0,450.123 c 0,40.844 20.894,62.229 62.192,62.229 l 452.024,0 c 41.307,0 62.229,-20.316 62.229,-62.229 l 0,-450.123 c 0,-42.601 -20.922,-65.036 -63.522,-65.036 -0.003,0 -448.494,-0.143 -448.352,0 z"
       id="path1329"
       style="fill:#111111;fill-opacity:0;stroke:#eeeeee;stroke-width:3.40799999;stroke-opacity:0"
       inkscape:connector-curvature="0" />
  </g>
  <g
     id="g2319"
     transform="matrix(0.04083073,0,0,0.04083073,-52.92461,88.766748)">
    <path
       d=""
       id="path2323"
       style="fill:#0089cd;stroke:none"
       inkscape:connector-curvature="0" />
  </g>
  <g
     id="g2325"
     transform="matrix(0.04083073,0,0,0.04083073,-52.92461,88.766748)">
    <path
       d=""
       id="path2329"
       style="fill:#0089cd;stroke:none"
       inkscape:connector-curvature="0" />
  </g>
  <circle
     style="fill:#0089cd;fill-opacity:1;stroke:none;stroke-width:19.34242439;stroke-miterlimit:4;stroke-dasharray:none;stroke-opacity:1"
     id="path898"
     cx="7.7858167"
     cy="5.9693398"
     r="2.6025786" />
  <path
     style="fill:#0089cd;fill-opacity:1;stroke:none;stroke-width:11.80940342px;stroke-linecap:butt;stroke-linejoin:miter;stroke-opacity:1"
     d="M 2.047014,21.558758 C 2.004824,17.942628 3.030876,9.3500102 5.580881,9.1854072 c 1.937984,-0.07746 2.671181,-0.133862 4.206694,0 2.202499,0.180471 4.025729,7.9298108 4.042379,12.3733508 l -1.62791,0 c -0.23225,-3.43109 -0.6193,-5.549 -1.317824,-7.79069 -0.155039,1.08527 -0.232558,7.79069 -0.232558,7.79069 l -5.426355,0 -0.310077,-7.79069 c -1.135887,2.82005 -1.338016,5.81924 -1.317829,7.86821 z"
     id="path900"
     inkscape:connector-curvature="0"
     sodipodi:nodetypes="ccccccccccc" />
  <path
     style="fill:#0089cd;fill-opacity:1;stroke:none;stroke-width:11.80940342px;stroke-linecap:butt;stroke-linejoin:miter;stroke-opacity:1"
     d="m 10.397818,7.5220472 c 0.715186,0.504837 2.650396,-1.430378 3.449726,-1.388306 0.79932,0.04212 4.12283,1.009675 5.09044,-0.168279 0.96761,-1.177954 0.54691,-5.04837399 -0.79933,-5.34285999 -1.34623,-0.294486 -7.530487,-1.262099 -8.287743,0.88346799 -0.757255,2.145556 1.766933,3.617996 2.187623,3.786276 0.12622,0.799323 -1.640716,2.229701 -1.640716,2.229701 z"
     id="path902"
     inkscape:connector-curvature="0"
     sodipodi:nodetypes="csssscc" />
  <circle
     style="fill:#0089cd;fill-opacity:1;stroke:#ffffff;stroke-width:0.51067579;stroke-miterlimit:4;stroke-dasharray:none;stroke-opacity:1"
     id="path904"
     cx="12.818974"
     cy="3.0492425"
     r="0.25094748" />
  <circle
     style="fill:#0089cd;fill-opacity:1;stroke:#ffffff;stroke-width:0.51067579;stroke-miterlimit:4;stroke-dasharray:none;stroke-opacity:1"
     id="path904-5"
     cx="14.872266"
     cy="3.0492425"
     r="0.25094748" />
  <circle
     style="fill:#0089cd;fill-opacity:1;stroke:#ffffff;stroke-width:0.51067579;stroke-miterlimit:4;stroke-dasharray:none;stroke-opacity:1"
     id="path904-5-5"
     cx="16.889111"
     cy="3.0492425"
     r="0.25094748" />
</svg>
