<?xml version="1.0" encoding="UTF-8" standalone="no"?>
<!-- Created with Inkscape (http://www.inkscape.org/) -->

<svg
   xmlns:dc="http://purl.org/dc/elements/1.1/"
   xmlns:cc="http://creativecommons.org/ns#"
   xmlns:rdf="http://www.w3.org/1999/02/22-rdf-syntax-ns#"
   xmlns:svg="http://www.w3.org/2000/svg"
   xmlns="http://www.w3.org/2000/svg"
   xmlns:sodipodi="http://sodipodi.sourceforge.net/DTD/sodipodi-0.dtd"
   xmlns:inkscape="http://www.inkscape.org/namespaces/inkscape"
   height="22"
   id="svg2"
   inkscape:output_extension="org.inkscape.output.svg.inkscape"
   inkscape:version="0.91 r13725"
   sodipodi:docname="dam.svg"
   sodipodi:version="0.32"
   version="1.0"
   width="21.999998"
   inkscape:export-filename="C:\Users\jeremy\Pictures\svg\dam.png"
   inkscape:export-xdpi="96"
   inkscape:export-ydpi="96">
  <defs
     id="defs22">
    <inkscape:perspective
       id="perspective24"
       inkscape:persp3d-origin="290 : 193.33333 : 1"
       inkscape:vp_x="0 : 290 : 1"
       inkscape:vp_y="0 : 1000 : 0"
       inkscape:vp_z="580 : 290 : 1"
       sodipodi:type="inkscape:persp3d" />
  </defs>
  <metadata
     id="metadata10">
    <rdf:RDF>
      <cc:Work
         rdf:about="">
        <dc:format>image/svg+xml</dc:format>
        <dc:type
           rdf:resource="http://purl.org/dc/dcmitype/StillImage" />
        <cc:license
           rdf:resource="http://web.resource.org/cc/PublicDomain" />
        <dc:language>en</dc:language>
        <dc:title></dc:title>
      </cc:Work>
    </rdf:RDF>
  </metadata>
  <sodipodi:namedview
     bordercolor="#666666"
     borderopacity="1.0"
     gridtolerance="10.0"
     guidetolerance="10.0"
     id="base"
     inkscape:current-layer="svg2"
     inkscape:cx="51.074761"
     inkscape:cy="-47.22146"
     inkscape:pageopacity="0.0"
     inkscape:pageshadow="2"
     inkscape:window-height="1051"
     inkscape:window-width="1920"
     inkscape:window-x="0"
     inkscape:window-y="0"
     inkscape:zoom="5.0449372"
     objecttolerance="10.0"
     pagecolor="#ffffff"
     showgrid="false"
     inkscape:window-maximized="1"
     inkscape:measure-start="0,0"
     inkscape:measure-end="0,0"
     inkscape:lockguides="true"
     fit-margin-top="0"
     fit-margin-left="0"
     fit-margin-right="0"
     fit-margin-bottom="0" />
  <rect
     style="fill:#eeeeee;fill-opacity:1;stroke:none;stroke-width:5.44347048;stroke-linecap:round;stroke-linejoin:miter;stroke-miterlimit:4;stroke-dasharray:none;stroke-dashoffset:0;stroke-opacity:1"
     id="rect4532"
     width="21.980648"
     height="14.962436"
     x="0.01935013"
     y="4.0414162" />
  <g
     id="g1327"
     transform="matrix(0.00446971,0,0,0.00446971,0,19.403724)">
    <path
       d="M 66.275,1.768 C 24.94,1.768 1.704,23.139 1.704,66.804 l 0,450.123 c 0,40.844 20.894,62.229 62.192,62.229 l 452.024,0 c 41.307,0 62.229,-20.316 62.229,-62.229 l 0,-450.123 c 0,-42.601 -20.922,-65.036 -63.522,-65.036 -0.003,0 -448.494,-0.143 -448.352,0 z"
       id="path1329"
       style="fill:#111111;fill-opacity:0;stroke:#eeeeee;stroke-width:3.40799999;stroke-opacity:0"
       inkscape:connector-curvature="0" />
  </g>
  <g
     id="g2319"
     transform="matrix(0.04083073,0,0,0.04083073,-53.582808,72.832294)">
    <path
       d=""
       id="path2323"
       style="fill:#0089cd;stroke:none"
       inkscape:connector-curvature="0" />
  </g>
  <g
     id="g2325"
     transform="matrix(0.04083073,0,0,0.04083073,-53.582808,72.832294)">
    <path
       d=""
       id="path2329"
       style="fill:#0089cd;stroke:none"
       inkscape:connector-curvature="0" />
  </g>
  <path
     style="fill:none;fill-opacity:1;stroke:#0089cd;stroke-width:0.51930565;stroke-linecap:round;stroke-miterlimit:4;stroke-dasharray:none;stroke-opacity:1"
     id="path830"
     sodipodi:type="arc"
     sodipodi:cx="2.1045322"
     sodipodi:cy="5.1584206"
     sodipodi:rx="1.4481746"
     sodipodi:ry="1.4708085"
     sodipodi:start="0"
     sodipodi:end="3.1415927"
     sodipodi:open="true"
     d="m 3.5527068,5.1584206 a 1.4481746,1.4708085 0 0 1 -0.7240873,1.2737575 1.4481746,1.4708085 0 0 1 -1.4481746,0 1.4481746,1.4708085 0 0 1 -0.72408725,-1.2737576" />
  <path
     style="fill:none;fill-opacity:1;stroke:#0089cd;stroke-width:0.51930565;stroke-linecap:round;stroke-miterlimit:4;stroke-dasharray:none;stroke-opacity:1"
     id="path830-0"
     sodipodi:type="arc"
     sodipodi:cx="5.0348988"
     sodipodi:cy="5.1584206"
     sodipodi:rx="1.4481746"
     sodipodi:ry="1.4708085"
     sodipodi:start="0"
     sodipodi:end="3.1415927"
     sodipodi:open="true"
     d="m 6.4830734,5.1584206 a 1.4481746,1.4708085 0 0 1 -0.7240874,1.2737575 1.4481746,1.4708085 0 0 1 -1.4481746,0 1.4481746,1.4708085 0 0 1 -0.7240872,-1.2737576" />
  <path
     style="fill:none;fill-opacity:1;stroke:#0089cd;stroke-width:0.51930565;stroke-linecap:round;stroke-miterlimit:4;stroke-dasharray:none;stroke-opacity:1"
     id="path830-0-3"
     sodipodi:type="arc"
     sodipodi:cx="7.9504642"
     sodipodi:cy="5.1584206"
     sodipodi:rx="1.4481746"
     sodipodi:ry="1.4708085"
     sodipodi:start="6.2639059"
     sodipodi:end="3.1415927"
     sodipodi:open="true"
     d="M 9.3983697,5.130066 A 1.4481746,1.4708085 0 0 1 8.6906109,6.422621 1.4481746,1.4708085 0 0 1 7.2344516,6.4368778 1.4481746,1.4708085 0 0 1 6.5022897,5.1584205" />
  <path
     style="fill:none;fill-opacity:1;stroke:#0089cd;stroke-width:0.51930565;stroke-linecap:round;stroke-miterlimit:4;stroke-dasharray:none;stroke-opacity:1"
     id="path830-6"
     sodipodi:type="arc"
     sodipodi:cx="2.17663"
     sodipodi:cy="7.6764641"
     sodipodi:rx="1.4481746"
     sodipodi:ry="1.4708085"
     sodipodi:start="0"
     sodipodi:end="3.1415927"
     sodipodi:open="true"
     d="m 3.6248046,7.6764641 a 1.4481746,1.4708085 0 0 1 -0.7240873,1.2737575 1.4481746,1.4708085 0 0 1 -1.4481746,0 A 1.4481746,1.4708085 0 0 1 0.72845542,7.676464" />
  <path
     style="fill:none;fill-opacity:1;stroke:#0089cd;stroke-width:0.51930565;stroke-linecap:round;stroke-miterlimit:4;stroke-dasharray:none;stroke-opacity:1"
     id="path830-0-8"
     sodipodi:type="arc"
     sodipodi:cx="5.1069965"
     sodipodi:cy="7.6764641"
     sodipodi:rx="1.4481746"
     sodipodi:ry="1.4708085"
     sodipodi:start="0"
     sodipodi:end="3.1415927"
     sodipodi:open="true"
     d="m 6.5551711,7.6764641 a 1.4481746,1.4708085 0 0 1 -0.7240873,1.2737575 1.4481746,1.4708085 0 0 1 -1.4481746,0 A 1.4481746,1.4708085 0 0 1 3.6588219,7.676464" />
  <path
     style="fill:none;fill-opacity:1;stroke:#0089cd;stroke-width:0.51930565;stroke-linecap:round;stroke-miterlimit:4;stroke-dasharray:none;stroke-opacity:1"
     id="path830-0-3-4"
     sodipodi:type="arc"
     sodipodi:cx="8.022562"
     sodipodi:cy="7.6764641"
     sodipodi:rx="1.4481746"
     sodipodi:ry="1.4708085"
     sodipodi:start="6.2639059"
     sodipodi:end="3.1415927"
     sodipodi:open="true"
     d="M 9.4704675,7.6481095 A 1.4481746,1.4708085 0 0 1 8.7627086,8.9406646 1.4481746,1.4708085 0 0 1 7.3065494,8.9549213 1.4481746,1.4708085 0 0 1 6.5743874,7.676464" />
  <path
     style="fill:none;fill-opacity:1;stroke:#0089cd;stroke-width:0.51930565;stroke-linecap:round;stroke-miterlimit:4;stroke-dasharray:none;stroke-opacity:1"
     id="path830-6-0"
     sodipodi:type="arc"
     sodipodi:cx="2.1340733"
     sodipodi:cy="10.01688"
     sodipodi:rx="1.4481746"
     sodipodi:ry="1.4708085"
     sodipodi:start="0"
     sodipodi:end="3.1415927"
     sodipodi:open="true"
     d="m 3.5822479,10.01688 a 1.4481746,1.4708085 0 0 1 -0.7240874,1.273758 1.4481746,1.4708085 0 0 1 -1.4481746,0 1.4481746,1.4708085 0 0 1 -0.72408724,-1.273758" />
  <path
     style="fill:none;fill-opacity:1;stroke:#0089cd;stroke-width:0.51930565;stroke-linecap:round;stroke-miterlimit:4;stroke-dasharray:none;stroke-opacity:1"
     id="path830-0-8-2"
     sodipodi:type="arc"
     sodipodi:cx="5.0644474"
     sodipodi:cy="10.01688"
     sodipodi:rx="1.4481746"
     sodipodi:ry="1.4708085"
     sodipodi:start="0"
     sodipodi:end="3.1415927"
     sodipodi:open="true"
     d="m 6.512622,10.01688 a 1.4481746,1.4708085 0 0 1 -0.7240873,1.273758 1.4481746,1.4708085 0 0 1 -1.4481746,0 1.4481746,1.4708085 0 0 1 -0.7240873,-1.273758" />
  <path
     style="fill:none;fill-opacity:1;stroke:#0089cd;stroke-width:0.51930565;stroke-linecap:round;stroke-miterlimit:4;stroke-dasharray:none;stroke-opacity:1"
     id="path830-0-3-4-9"
     sodipodi:type="arc"
     sodipodi:cx="7.9800129"
     sodipodi:cy="10.01688"
     sodipodi:rx="1.4481746"
     sodipodi:ry="1.4708085"
     sodipodi:start="6.2639059"
     sodipodi:end="3.1415927"
     sodipodi:open="true"
     d="M 9.4279184,9.9885255 A 1.4481746,1.4708085 0 0 1 8.7201595,11.281081 1.4481746,1.4708085 0 0 1 7.2640002,11.295337 1.4481746,1.4708085 0 0 1 6.5318383,10.01688" />
  <path
     style="fill:none;fill-opacity:1;stroke:#0089cd;stroke-width:0.51930565;stroke-linecap:round;stroke-miterlimit:4;stroke-dasharray:none;stroke-opacity:1"
     id="path830-6-0-0"
     sodipodi:type="arc"
     sodipodi:cx="2.1340733"
     sodipodi:cy="12.39986"
     sodipodi:rx="1.4481746"
     sodipodi:ry="1.4708085"
     sodipodi:start="0"
     sodipodi:end="3.1415927"
     sodipodi:open="true"
     d="m 3.5822479,12.39986 a 1.4481746,1.4708085 0 0 1 -0.7240874,1.273758 1.4481746,1.4708085 0 0 1 -1.4481746,0 1.4481746,1.4708085 0 0 1 -0.72408724,-1.273758" />
  <path
     style="fill:none;fill-opacity:1;stroke:#0089cd;stroke-width:0.51930565;stroke-linecap:round;stroke-miterlimit:4;stroke-dasharray:none;stroke-opacity:1"
     id="path830-0-8-2-8"
     sodipodi:type="arc"
     sodipodi:cx="5.0644474"
     sodipodi:cy="12.39986"
     sodipodi:rx="1.4481746"
     sodipodi:ry="1.4708085"
     sodipodi:start="0"
     sodipodi:end="3.1415927"
     sodipodi:open="true"
     d="m 6.512622,12.39986 a 1.4481746,1.4708085 0 0 1 -0.7240873,1.273758 1.4481746,1.4708085 0 0 1 -1.4481746,0 1.4481746,1.4708085 0 0 1 -0.7240873,-1.273758" />
  <path
     style="fill:none;fill-opacity:1;stroke:#0089cd;stroke-width:0.51930565;stroke-linecap:round;stroke-miterlimit:4;stroke-dasharray:none;stroke-opacity:1"
     id="path830-0-3-4-9-1"
     sodipodi:type="arc"
     sodipodi:cx="7.9800129"
     sodipodi:cy="12.39986"
     sodipodi:rx="1.4481746"
     sodipodi:ry="1.4708085"
     sodipodi:start="6.2639059"
     sodipodi:end="3.1415927"
     sodipodi:open="true"
     d="M 9.4279184,12.371506 A 1.4481746,1.4708085 0 0 1 8.7201595,13.664061 1.4481746,1.4708085 0 0 1 7.2640002,13.678318 1.4481746,1.4708085 0 0 1 6.5318383,12.39986" />
  <path
     style="fill:none;fill-opacity:1;stroke:#0089cd;stroke-width:0.51930565;stroke-linecap:round;stroke-miterlimit:4;stroke-dasharray:none;stroke-opacity:1"
     id="path830-6-0-3"
     sodipodi:type="arc"
     sodipodi:cx="2.1340733"
     sodipodi:cy="14.598431"
     sodipodi:rx="1.4481746"
     sodipodi:ry="1.4708085"
     sodipodi:start="0"
     sodipodi:end="3.1415927"
     sodipodi:open="true"
     d="m 3.5822479,14.598431 a 1.4481746,1.4708085 0 0 1 -0.7240874,1.273757 1.4481746,1.4708085 0 0 1 -1.4481746,0 1.4481746,1.4708085 0 0 1 -0.72408724,-1.273757" />
  <path
     style="fill:none;fill-opacity:1;stroke:#0089cd;stroke-width:0.51930565;stroke-linecap:round;stroke-miterlimit:4;stroke-dasharray:none;stroke-opacity:1"
     id="path830-0-8-2-6"
     sodipodi:type="arc"
     sodipodi:cx="5.0644474"
     sodipodi:cy="14.598431"
     sodipodi:rx="1.4481746"
     sodipodi:ry="1.4708085"
     sodipodi:start="0"
     sodipodi:end="3.1415927"
     sodipodi:open="true"
     d="m 6.512622,14.598431 a 1.4481746,1.4708085 0 0 1 -0.7240873,1.273757 1.4481746,1.4708085 0 0 1 -1.4481746,0 1.4481746,1.4708085 0 0 1 -0.7240873,-1.273757" />
  <path
     style="fill:none;fill-opacity:1;stroke:#0089cd;stroke-width:0.51930565;stroke-linecap:round;stroke-miterlimit:4;stroke-dasharray:none;stroke-opacity:1"
     id="path830-0-3-4-9-7"
     sodipodi:type="arc"
     sodipodi:cx="7.9800129"
     sodipodi:cy="14.612637"
     sodipodi:rx="1.4481746"
     sodipodi:ry="1.4708085"
     sodipodi:start="6.2639059"
     sodipodi:end="3.1415927"
     sodipodi:open="true"
     d="M 9.4279184,14.584282 A 1.4481746,1.4708085 0 0 1 8.7201595,15.876837 1.4481746,1.4708085 0 0 1 7.2640002,15.891094 1.4481746,1.4708085 0 0 1 6.5318383,14.612636" />
  <path
     style="fill:none;fill-opacity:1;stroke:#0089cd;stroke-width:0.52528149;stroke-linecap:round;stroke-miterlimit:4;stroke-dasharray:none;stroke-opacity:1"
     id="path830-6-0-0-5"
     sodipodi:type="arc"
     sodipodi:cx="2.0915241"
     sodipodi:cy="16.750271"
     sodipodi:rx="1.4875423"
     sodipodi:ry="1.4650276"
     sodipodi:start="0"
     sodipodi:end="3.1415927"
     sodipodi:open="true"
     d="m 3.5790664,16.750271 a 1.4875423,1.4650276 0 0 1 -0.7437712,1.268751 1.4875423,1.4650276 0 0 1 -1.4875423,0 1.4875423,1.4650276 0 0 1 -0.74377105,-1.268751" />
  <path
     style="fill:none;fill-opacity:1;stroke:#0089cd;stroke-width:0.51930565;stroke-linecap:round;stroke-miterlimit:4;stroke-dasharray:none;stroke-opacity:1"
     id="path830-0-8-2-8-6"
     sodipodi:type="arc"
     sodipodi:cx="5.0644474"
     sodipodi:cy="16.74757"
     sodipodi:rx="1.4481746"
     sodipodi:ry="1.4708085"
     sodipodi:start="0"
     sodipodi:end="3.1415927"
     sodipodi:open="true"
     d="m 6.512622,16.74757 a 1.4481746,1.4708085 0 0 1 -0.7240873,1.273758 1.4481746,1.4708085 0 0 1 -1.4481746,0 1.4481746,1.4708085 0 0 1 -0.7240873,-1.273758" />
  <path
     style="fill:none;fill-opacity:1;stroke:#0089cd;stroke-width:0.51930565;stroke-linecap:round;stroke-miterlimit:4;stroke-dasharray:none;stroke-opacity:1"
     id="path830-0-3-4-9-1-6"
     sodipodi:type="arc"
     sodipodi:cx="7.9800129"
     sodipodi:cy="16.761745"
     sodipodi:rx="1.4481746"
     sodipodi:ry="1.4708085"
     sodipodi:start="6.2639059"
     sodipodi:end="3.1415927"
     sodipodi:open="true"
     d="M 9.4279184,16.733391 A 1.4481746,1.4708085 0 0 1 8.7201595,18.025946 1.4481746,1.4708085 0 0 1 7.2640002,18.040203 1.4481746,1.4708085 0 0 1 6.5318383,16.761745" />
  <path
     style="fill:#0089cd;fill-opacity:1;stroke:none;stroke-width:16.34957314px;stroke-linecap:butt;stroke-linejoin:miter;stroke-opacity:1"
     d="m 9.439995,4.6722738 0,13.7446302 4.042541,0 -2.893608,-13.7446302 z"
     id="path966"
     inkscape:connector-curvature="0"
     sodipodi:nodetypes="ccccc" />
  <path
     style="fill:none;fill-opacity:1;stroke:#0089cd;stroke-width:0.51930565;stroke-linecap:round;stroke-miterlimit:4;stroke-dasharray:none;stroke-opacity:1"
     id="path830-6-0-0-4"
     sodipodi:type="arc"
     sodipodi:cx="13.878717"
     sodipodi:cy="14.598431"
     sodipodi:rx="1.4481746"
     sodipodi:ry="1.4708085"
     sodipodi:start="0"
     sodipodi:end="3.1415927"
     sodipodi:open="true"
     d="m 15.326892,14.598431 a 1.4481746,1.4708085 0 0 1 -0.724087,1.273757 1.4481746,1.4708085 0 0 1 -1.448175,0 1.4481746,1.4708085 0 0 1 -0.724087,-1.273757" />
  <path
     style="fill:none;fill-opacity:1;stroke:#0089cd;stroke-width:0.51930565;stroke-linecap:round;stroke-miterlimit:4;stroke-dasharray:none;stroke-opacity:1"
     id="path830-0-8-2-8-2"
     sodipodi:type="arc"
     sodipodi:cx="16.809099"
     sodipodi:cy="14.598431"
     sodipodi:rx="1.4481746"
     sodipodi:ry="1.4708085"
     sodipodi:start="0"
     sodipodi:end="3.1415927"
     sodipodi:open="true"
     d="m 18.257274,14.598431 a 1.4481746,1.4708085 0 0 1 -0.724088,1.273757 1.4481746,1.4708085 0 0 1 -1.448174,0 1.4481746,1.4708085 0 0 1 -0.724087,-1.273757" />
  <path
     style="fill:none;fill-opacity:1;stroke:#0089cd;stroke-width:0.51930565;stroke-linecap:round;stroke-miterlimit:4;stroke-dasharray:none;stroke-opacity:1"
     id="path830-0-3-4-9-1-1"
     sodipodi:type="arc"
     sodipodi:cx="19.724649"
     sodipodi:cy="14.612637"
     sodipodi:rx="1.4481746"
     sodipodi:ry="1.4708085"
     sodipodi:start="6.2639059"
     sodipodi:end="3.1415927"
     sodipodi:open="true"
     d="m 21.172555,14.584282 a 1.4481746,1.4708085 0 0 1 -0.707759,1.292555 1.4481746,1.4708085 0 0 1 -1.456159,0.01426 1.4481746,1.4708085 0 0 1 -0.732162,-1.278458" />
  <path
     style="fill:none;fill-opacity:1;stroke:#0089cd;stroke-width:0.51930565;stroke-linecap:round;stroke-miterlimit:4;stroke-dasharray:none;stroke-opacity:1"
     id="path830-6-0-0-4-3"
     sodipodi:type="arc"
     sodipodi:cx="14.134035"
     sodipodi:cy="16.74757"
     sodipodi:rx="1.4481746"
     sodipodi:ry="1.4708085"
     sodipodi:start="0"
     sodipodi:end="3.1415927"
     sodipodi:open="true"
     d="m 15.58221,16.74757 a 1.4481746,1.4708085 0 0 1 -0.724088,1.273758 1.4481746,1.4708085 0 0 1 -1.448174,0 1.4481746,1.4708085 0 0 1 -0.724087,-1.273758" />
  <path
     style="fill:none;fill-opacity:1;stroke:#0089cd;stroke-width:0.51930565;stroke-linecap:round;stroke-miterlimit:4;stroke-dasharray:none;stroke-opacity:1"
     id="path830-0-8-2-8-2-2"
     sodipodi:type="arc"
     sodipodi:cx="17.064409"
     sodipodi:cy="16.74757"
     sodipodi:rx="1.4481746"
     sodipodi:ry="1.4708085"
     sodipodi:start="0"
     sodipodi:end="3.1415927"
     sodipodi:open="true"
     d="m 18.512584,16.74757 a 1.4481746,1.4708085 0 0 1 -0.724087,1.273758 1.4481746,1.4708085 0 0 1 -1.448175,0 1.4481746,1.4708085 0 0 1 -0.724087,-1.273758" />
  <path
     style="fill:none;fill-opacity:1;stroke:#0089cd;stroke-width:0.51930565;stroke-linecap:round;stroke-miterlimit:4;stroke-dasharray:none;stroke-opacity:1"
     id="path830-0-3-4-9-1-1-5"
     sodipodi:type="arc"
     sodipodi:cx="19.979975"
     sodipodi:cy="16.761745"
     sodipodi:rx="1.4481746"
     sodipodi:ry="1.4708085"
     sodipodi:start="6.2639059"
     sodipodi:end="3.1415927"
     sodipodi:open="true"
     d="m 21.42788,16.733391 a 1.4481746,1.4708085 0 0 1 -0.707759,1.292555 1.4481746,1.4708085 0 0 1 -1.456159,0.01426 1.4481746,1.4708085 0 0 1 -0.732162,-1.278458" />
</svg>
