<?xml version="1.0" encoding="UTF-8" standalone="no"?>
<!-- Created with Inkscape (http://www.inkscape.org/) -->

<svg
   xmlns:dc="http://purl.org/dc/elements/1.1/"
   xmlns:cc="http://creativecommons.org/ns#"
   xmlns:rdf="http://www.w3.org/1999/02/22-rdf-syntax-ns#"
   xmlns:svg="http://www.w3.org/2000/svg"
   xmlns="http://www.w3.org/2000/svg"
   xmlns:sodipodi="http://sodipodi.sourceforge.net/DTD/sodipodi-0.dtd"
   xmlns:inkscape="http://www.inkscape.org/namespaces/inkscape"
   version="1.0"
   width="22"
   height="22"
   id="svg2"
   sodipodi:version="0.32"
   inkscape:version="0.91 r13725"
   sodipodi:docname="danger.svg"
   inkscape:output_extension="org.inkscape.output.svg.inkscape">
  <metadata
     id="metadata12">
    <rdf:RDF>
      <cc:Work
         rdf:about="">
        <dc:format>image/svg+xml</dc:format>
        <dc:type
           rdf:resource="http://purl.org/dc/dcmitype/StillImage" />
        <dc:title></dc:title>
      </cc:Work>
    </rdf:RDF>
  </metadata>
  <sodipodi:namedview
     inkscape:window-height="726"
     inkscape:window-width="1024"
     inkscape:pageshadow="2"
     inkscape:pageopacity="0.0"
     guidetolerance="10.0"
     gridtolerance="10.0"
     objecttolerance="10.0"
     borderopacity="1.0"
     bordercolor="#666666"
     pagecolor="#ffffff"
     id="base"
     inkscape:zoom="1.8275991"
     inkscape:cx="28.114536"
     inkscape:cy="19.909522"
     inkscape:window-x="246"
     inkscape:window-y="25"
     inkscape:current-layer="svg2"
     showgrid="false"
     fit-margin-top="0"
     fit-margin-left="0"
     fit-margin-right="0"
     fit-margin-bottom="0"
     inkscape:window-maximized="0" />
  <defs
     id="defs4">
    <inkscape:perspective
       sodipodi:type="inkscape:persp3d"
       inkscape:vp_x="0 : 292.5 : 1"
       inkscape:vp_y="0 : 1000 : 0"
       inkscape:vp_z="675 : 292.5 : 1"
       inkscape:persp3d-origin="337.5 : 195 : 1"
       id="perspective11" />
  </defs>
  <g
     id="g2384"
     transform="matrix(0.03334995,0,0,0.03334995,-0.25560764,2.5747772)">
    <g
       transform="matrix(0.977077,0,0,0.977077,-30.42813,-35.56338)"
       id="g1909">
      <path
         style="fill:#ffffff;fill-rule:evenodd;stroke:#000000;stroke-width:2"
         d="m 71.985614,631.52918 c -11.4325,0 -21.99656,-6.09918 -27.71282,-16 -5.71624,-9.90085 -5.71624,-22.09918 0,-32 L 348.84719,55.99085 c 5.71626,-9.90083 16.28032,-16.00001 27.71281,-16.00001 11.43251,0 21.99659,6.09918 27.71283,16.00001 l 304.5744,527.53833 c 5.71624,9.90082 5.71624,22.09915 0,32 -5.71626,9.90081 -16.28032,16 -27.71282,16 l -609.148796,0 z"
         id="path1902"
         inkscape:connector-curvature="0" />
      <path
         style="fill:#cc0000;fill-rule:evenodd;stroke:none"
         d="m 71.985614,619.52918 c -7.14532,0 -13.74786,-3.81198 -17.32052,-10 -3.57264,-6.18804 -3.57264,-13.81198 0,-20 L 359.23951,61.99086 c 3.57264,-6.18804 10.1752,-10.00002 17.32049,-10.00002 7.14533,0 13.74787,3.81198 17.32053,10.00002 l 304.5744,527.53832 c 3.57264,6.18802 3.57264,13.81196 0,20 -3.57266,6.18802 -10.1752,10 -17.32052,10 l -609.148796,0 z m 69.282086,-60 235.2923,-407.53833 235.29233,407.53833 -470.58463,0 z"
         id="path1904"
         inkscape:connector-curvature="0" />
    </g>
    <path
       d="m 305.54965,214.69023 c 0,-36.36588 63.9007,-36.18304 63.9007,0 l -16.76084,191.17831 c 0,15.06562 -29.85525,15.10817 -29.85525,0 L 305.54965,214.69023 Z"
       style="fill:#000000;fill-opacity:1;fill-rule:evenodd;stroke:none;stroke-width:1px;stroke-linecap:butt;stroke-linejoin:miter;stroke-opacity:1"
       id="path37169"
       inkscape:connector-curvature="0" />
    <path
       d="m 369.18845,460.60298 c 0,17.50105 -14.18741,31.68845 -31.68845,31.68845 -17.50104,0 -31.68845,-14.1874 -31.68845,-31.68845 0,-17.50104 14.18741,-31.68845 31.68845,-31.68845 17.50104,0 31.68845,14.18741 31.68845,31.68845 z"
       style="fill:#000000;fill-opacity:1;fill-rule:nonzero;stroke:none;stroke-width:1;stroke-linecap:round;stroke-linejoin:round;stroke-miterlimit:4;stroke-dasharray:none;stroke-dashoffset:0;stroke-opacity:1"
       id="path37167"
       inkscape:connector-curvature="0" />
  </g>
</svg>
