<?xml version="1.0" encoding="UTF-8" standalone="no"?>
<!-- Created with Inkscape (http://www.inkscape.org/) -->

<svg
   xmlns:dc="http://purl.org/dc/elements/1.1/"
   xmlns:cc="http://creativecommons.org/ns#"
   xmlns:rdf="http://www.w3.org/1999/02/22-rdf-syntax-ns#"
   xmlns:svg="http://www.w3.org/2000/svg"
   xmlns="http://www.w3.org/2000/svg"
   xmlns:sodipodi="http://sodipodi.sourceforge.net/DTD/sodipodi-0.dtd"
   xmlns:inkscape="http://www.inkscape.org/namespaces/inkscape"
   height="22"
   id="svg2"
   inkscape:output_extension="org.inkscape.output.svg.inkscape"
   inkscape:version="0.91 r13725"
   sodipodi:docname="diving.svg"
   sodipodi:version="0.32"
   version="1.0"
   width="22.000004"
   inkscape:export-filename="C:\Users\jeremy\Pictures\svg\diving.png"
   inkscape:export-xdpi="96"
   inkscape:export-ydpi="96">
  <defs
     id="defs22" />
  <metadata
     id="metadata10">
    <rdf:RDF>
      <cc:Work
         rdf:about="">
        <dc:format>image/svg+xml</dc:format>
        <dc:type
           rdf:resource="http://purl.org/dc/dcmitype/StillImage" />
        <cc:license
           rdf:resource="http://web.resource.org/cc/PublicDomain" />
        <dc:language>en</dc:language>
        <dc:title></dc:title>
      </cc:Work>
    </rdf:RDF>
  </metadata>
  <sodipodi:namedview
     bordercolor="#666666"
     borderopacity="1.0"
     gridtolerance="10.0"
     guidetolerance="10.0"
     id="base"
     inkscape:current-layer="svg2"
     inkscape:cx="-334.40459"
     inkscape:cy="-70.452746"
     inkscape:pageopacity="0.0"
     inkscape:pageshadow="2"
     inkscape:window-height="1051"
     inkscape:window-width="1920"
     inkscape:window-x="0"
     inkscape:window-y="0"
     inkscape:zoom="1"
     objecttolerance="10.0"
     pagecolor="#ffffff"
     showgrid="false"
     inkscape:window-maximized="1"
     inkscape:measure-start="0,0"
     inkscape:measure-end="0,0"
     inkscape:lockguides="true"
     fit-margin-top="0"
     fit-margin-left="0"
     fit-margin-right="0"
     fit-margin-bottom="0" />
  <g
     id="g1327"
     transform="matrix(0.03610996,0,0,0.03610996,0,1.0251686)">
    <path
       d="M 66.275,1.768 C 24.94,1.768 1.704,23.139 1.704,66.804 l 0,450.123 c 0,40.844 20.894,62.229 62.192,62.229 l 452.024,0 c 41.307,0 62.229,-20.316 62.229,-62.229 l 0,-450.123 c 0,-42.601 -20.922,-65.036 -63.522,-65.036 -0.003,0 -448.494,-0.143 -448.352,0 z"
       id="path1329"
       style="fill:#111111;fill-opacity:0;stroke:#eeeeee;stroke-width:3.40799999;stroke-opacity:0"
       inkscape:connector-curvature="0" />
  </g>
  <g
     id="g2319"
     transform="matrix(0.04083073,0,0,0.04083073,-52.741211,84.298433)">
    <path
       d=""
       id="path2323"
       style="fill:#0089cd;stroke:none"
       inkscape:connector-curvature="0" />
  </g>
  <g
     id="g2325"
     transform="matrix(0.04083073,0,0,0.04083073,-52.741211,84.298433)">
    <path
       d=""
       id="path2329"
       style="fill:#0089cd;stroke:none"
       inkscape:connector-curvature="0" />
  </g>
  <path
     style="fill:none;fill-opacity:1;stroke:#0089cd;stroke-width:0.4665091;stroke-linecap:round;stroke-miterlimit:4;stroke-dasharray:none;stroke-opacity:1"
     id="path830"
     sodipodi:type="arc"
     sodipodi:cx="2.0074391"
     sodipodi:cy="15.70933"
     sodipodi:rx="1.3009424"
     sodipodi:ry="1.3212751"
     sodipodi:start="0"
     sodipodi:end="3.1415927"
     sodipodi:open="true"
     d="m 3.3083816,15.70933 a 1.3009424,1.3212751 0 0 1 -0.6504713,1.144257 1.3009424,1.3212751 0 0 1 -1.3009424,0 1.3009424,1.3212751 0 0 1 -0.65047118,-1.144257" />
  <path
     style="fill:none;fill-opacity:1;stroke:#0089cd;stroke-width:0.4665091;stroke-linecap:round;stroke-miterlimit:4;stroke-dasharray:none;stroke-opacity:1"
     id="path830-0"
     sodipodi:type="arc"
     sodipodi:cx="4.6398854"
     sodipodi:cy="15.70933"
     sodipodi:rx="1.3009424"
     sodipodi:ry="1.3212751"
     sodipodi:start="0"
     sodipodi:end="3.1415927"
     sodipodi:open="true"
     d="m 5.9408278,15.70933 a 1.3009424,1.3212751 0 0 1 -0.6504712,1.144257 1.3009424,1.3212751 0 0 1 -1.3009424,0 A 1.3009424,1.3212751 0 0 1 3.338943,15.70933" />
  <path
     style="fill:none;fill-opacity:1;stroke:#0089cd;stroke-width:0.4665091;stroke-linecap:round;stroke-miterlimit:4;stroke-dasharray:none;stroke-opacity:1"
     id="path830-0-3"
     sodipodi:type="arc"
     sodipodi:cx="7.2590337"
     sodipodi:cy="15.70933"
     sodipodi:rx="1.3009424"
     sodipodi:ry="1.3212751"
     sodipodi:start="6.2639059"
     sodipodi:end="3.1415927"
     sodipodi:open="true"
     d="M 8.5597343,15.683858 A 1.3009424,1.3212751 0 0 1 7.9239315,16.845002 1.3009424,1.3212751 0 0 1 6.6158162,16.857809 1.3009424,1.3212751 0 0 1 5.9580913,15.70933" />
  <path
     style="fill:none;fill-opacity:1;stroke:#0089cd;stroke-width:0.4665091;stroke-linecap:round;stroke-miterlimit:4;stroke-dasharray:none;stroke-opacity:1"
     id="path830-8"
     sodipodi:type="arc"
     sodipodi:cx="9.9586105"
     sodipodi:cy="15.70933"
     sodipodi:rx="1.3009424"
     sodipodi:ry="1.3212751"
     sodipodi:start="0"
     sodipodi:end="3.1415927"
     sodipodi:open="true"
     d="m 11.259553,15.70933 a 1.3009424,1.3212751 0 0 1 -0.650471,1.144257 1.3009424,1.3212751 0 0 1 -1.3009427,0 1.3009424,1.3212751 0 0 1 -0.6504712,-1.144257" />
  <path
     style="fill:none;fill-opacity:1;stroke:#0089cd;stroke-width:0.4665091;stroke-linecap:round;stroke-miterlimit:4;stroke-dasharray:none;stroke-opacity:1"
     id="path830-0-7"
     sodipodi:type="arc"
     sodipodi:cx="12.591049"
     sodipodi:cy="15.70933"
     sodipodi:rx="1.3009424"
     sodipodi:ry="1.3212751"
     sodipodi:start="0"
     sodipodi:end="3.1415927"
     sodipodi:open="true"
     d="m 13.891992,15.70933 a 1.3009424,1.3212751 0 0 1 -0.650472,1.144257 1.3009424,1.3212751 0 0 1 -1.300942,0 1.3009424,1.3212751 0 0 1 -0.650471,-1.144257" />
  <path
     style="fill:none;fill-opacity:1;stroke:#0089cd;stroke-width:0.4665091;stroke-linecap:round;stroke-miterlimit:4;stroke-dasharray:none;stroke-opacity:1"
     id="path830-0-3-0"
     sodipodi:type="arc"
     sodipodi:cx="15.210205"
     sodipodi:cy="15.70933"
     sodipodi:rx="1.3009424"
     sodipodi:ry="1.3212751"
     sodipodi:start="6.2639059"
     sodipodi:end="3.1415927"
     sodipodi:open="true"
     d="m 16.510906,15.683858 a 1.3009424,1.3212751 0 0 1 -0.635803,1.161144 1.3009424,1.3212751 0 0 1 -1.308115,0.01281 1.3009424,1.3212751 0 0 1 -0.657725,-1.148479" />
  <path
     style="fill:none;fill-opacity:1;stroke:#0089cd;stroke-width:0.4665091;stroke-linecap:round;stroke-miterlimit:4;stroke-dasharray:none;stroke-opacity:1"
     id="path830-9"
     sodipodi:type="arc"
     sodipodi:cx="17.833336"
     sodipodi:cy="15.785784"
     sodipodi:rx="1.3009424"
     sodipodi:ry="1.3212751"
     sodipodi:start="0"
     sodipodi:end="3.1415927"
     sodipodi:open="true"
     d="m 19.134278,15.785784 a 1.3009424,1.3212751 0 0 1 -0.650471,1.144258 1.3009424,1.3212751 0 0 1 -1.300942,0 1.3009424,1.3212751 0 0 1 -0.650472,-1.144258" />
  <path
     style="fill:none;fill-opacity:1;stroke:#0089cd;stroke-width:0.4665091;stroke-linecap:round;stroke-miterlimit:4;stroke-dasharray:none;stroke-opacity:1"
     id="path830-0-31"
     sodipodi:type="arc"
     sodipodi:cx="20.465782"
     sodipodi:cy="15.785784"
     sodipodi:rx="1.3009424"
     sodipodi:ry="1.3212751"
     sodipodi:start="0"
     sodipodi:end="3.1415927"
     sodipodi:open="true"
     d="m 21.766725,15.785784 a 1.3009424,1.3212751 0 0 1 -0.650472,1.144258 1.3009424,1.3212751 0 0 1 -1.300942,0 1.3009424,1.3212751 0 0 1 -0.650471,-1.144258" />
  <circle
     style="fill:#0089cd;fill-opacity:1;stroke:none;stroke-width:4.09310675;stroke-linecap:round;stroke-miterlimit:4;stroke-dasharray:none;stroke-opacity:1"
     id="path1643"
     cx="15.803185"
     cy="9.333704"
     r="1.2058594" />
  <rect
     style="fill:#0089cd;fill-opacity:1;stroke:none;stroke-width:1.70205581;stroke-linecap:round;stroke-miterlimit:4;stroke-dasharray:none;stroke-opacity:1"
     id="rect1645"
     width="5.8161697"
     height="1.068276"
     x="14.834529"
     y="-7.0918546"
     ry="0.48838598"
     rx="0.47043678"
     transform="matrix(0.53420738,0.84535346,-0.84535346,0.53420738,0,0)"
     inkscape:transform-center-y="0.11548555"
     inkscape:transform-center-x="0.027427799" />
  <rect
     style="fill:#0089cd;fill-opacity:1;stroke:none;stroke-width:1.70205581;stroke-linecap:round;stroke-miterlimit:4;stroke-dasharray:none;stroke-opacity:1"
     id="rect1645-8"
     width="5.8161697"
     height="1.068276"
     x="6.9713702"
     y="-2.622947"
     ry="0.48838598"
     rx="0.47043678"
     transform="matrix(0.60127326,0.79904347,-0.79904347,0.60127326,0,0)"
     inkscape:transform-center-y="0.11733829"
     inkscape:transform-center-x="0.017927235" />
  <rect
     style="fill:#0089cd;fill-opacity:1;stroke:none;stroke-width:1.92983234;stroke-linecap:round;stroke-miterlimit:4;stroke-dasharray:none;stroke-opacity:1"
     id="rect1645-8-8"
     width="5.8710594"
     height="1.3604912"
     x="9.6880798"
     y="5.5941"
     ry="0.62197852"
     rx="0.47487646"
     transform="matrix(0.9758835,0.21829199,-0.135073,0.99083565,0,0)"
     inkscape:transform-center-y="0.12538887"
     inkscape:transform-center-x="-0.067141597" />
</svg>
