<?xml version="1.0" encoding="UTF-8" standalone="no"?>
<!-- Created with Inkscape (http://www.inkscape.org/) -->

<svg
   xmlns:dc="http://purl.org/dc/elements/1.1/"
   xmlns:cc="http://creativecommons.org/ns#"
   xmlns:rdf="http://www.w3.org/1999/02/22-rdf-syntax-ns#"
   xmlns:svg="http://www.w3.org/2000/svg"
   xmlns="http://www.w3.org/2000/svg"
   xmlns:sodipodi="http://sodipodi.sourceforge.net/DTD/sodipodi-0.dtd"
   xmlns:inkscape="http://www.inkscape.org/namespaces/inkscape"
   height="22"
   id="svg2"
   inkscape:output_extension="org.inkscape.output.svg.inkscape"
   inkscape:version="0.91 r13725"
   sodipodi:docname="drinking_water.svg"
   sodipodi:version="0.32"
   version="1.0"
   width="22"
   inkscape:export-filename="C:\Users\jeremy\Pictures\svg\drinking_water.png"
   inkscape:export-xdpi="96"
   inkscape:export-ydpi="96">
  <defs
     id="defs22">
    <inkscape:perspective
       id="perspective24"
       inkscape:persp3d-origin="290 : 193.33333 : 1"
       inkscape:vp_x="0 : 290 : 1"
       inkscape:vp_y="0 : 1000 : 0"
       inkscape:vp_z="580 : 290 : 1"
       sodipodi:type="inkscape:persp3d" />
  </defs>
  <metadata
     id="metadata10">
    <rdf:RDF>
      <cc:Work
         rdf:about="">
        <dc:format>image/svg+xml</dc:format>
        <dc:type
           rdf:resource="http://purl.org/dc/dcmitype/StillImage" />
        <cc:license
           rdf:resource="http://web.resource.org/cc/PublicDomain" />
        <dc:language>en</dc:language>
        <dc:title></dc:title>
      </cc:Work>
    </rdf:RDF>
  </metadata>
  <sodipodi:namedview
     bordercolor="#666666"
     borderopacity="1.0"
     gridtolerance="10.0"
     guidetolerance="10.0"
     id="base"
     inkscape:current-layer="svg2"
     inkscape:cx="26.117214"
     inkscape:cy="-13.374994"
     inkscape:pageopacity="0.0"
     inkscape:pageshadow="2"
     inkscape:window-height="1051"
     inkscape:window-width="1920"
     inkscape:window-x="0"
     inkscape:window-y="0"
     inkscape:zoom="6.9236819"
     objecttolerance="10.0"
     pagecolor="#ffffff"
     showgrid="false"
     inkscape:window-maximized="1"
     inkscape:measure-start="0,0"
     inkscape:measure-end="0,0"
     inkscape:lockguides="true"
     fit-margin-top="0"
     fit-margin-left="0"
     fit-margin-right="0"
     fit-margin-bottom="0" />
  <g
     id="g2319"
     transform="matrix(0.04083073,0,0,0.04083073,-50.070705,88.368984)">
    <path
       d=""
       id="path2323"
       style="fill:#0089cd;stroke:none"
       inkscape:connector-curvature="0" />
  </g>
  <g
     id="g2325"
     transform="matrix(0.04083073,0,0,0.04083073,-50.070705,88.368984)">
    <path
       d=""
       id="path2329"
       style="fill:#0089cd;stroke:none"
       inkscape:connector-curvature="0" />
  </g>
  <path
     style="fill:#0089cd;fill-opacity:1;stroke:none;stroke-width:10.13824272;stroke-linecap:butt;stroke-linejoin:miter;stroke-miterlimit:4;stroke-dasharray:none;stroke-opacity:1"
     d="m 6.977489,3.8146973e-6 0,1.5410599853027 1.769271,0 0,1.284448 -7.036074,0 L 0,1.5022168 l 0,6.253562 1.646243,-1.273052 5.911239,0 c 0,0 0.276172,1.516631 1.950885,1.434969 1.373017,-0.0669 1.511495,-1.434969 1.511495,-1.434969 0,0 1.306032,-0.02076 2.314114,0 0.404744,0.0092 0.503425,0.288586 0.497972,0.552765 -0.03096,1.499399 0,2.155256 0,2.155256 0,0 1.918281,-0.02076 3.093291,0 0.0111,-1.693335 0.0339,-3.019698 0,-4.505924 -0.0291,-1.279327 -2.1237,-1.832783 -3.450657,-1.859312 -1.326959,-0.02653 -3.468241,0 -3.468241,0 l 10e-6,-1.284448 1.991882,0 0,-1.5410599853027 z"
     id="path1679"
     inkscape:connector-curvature="0"
     sodipodi:nodetypes="cccccccccscccccccccccc" />
  <path
     style="fill:none;stroke:#0089cd;stroke-width:0.47259146;stroke-linecap:butt;stroke-linejoin:miter;stroke-miterlimit:4;stroke-dasharray:none;stroke-opacity:1"
     d="m 9.254312,10.472884 2.834688,11.29082 6.953009,0 2.72772,-11.29082"
     id="path1681"
     inkscape:connector-curvature="0"
     sodipodi:nodetypes="cccc" />
  <path
     style="fill:none;fill-opacity:1;stroke:#0089cd;stroke-width:0.54643661;stroke-linecap:round;stroke-miterlimit:4;stroke-dasharray:none;stroke-opacity:1"
     id="path830-6-0-0-4"
     sodipodi:type="arc"
     sodipodi:cx="11.967618"
     sodipodi:cy="13.28883"
     sodipodi:rx="1.7786652"
     sodipodi:ry="1.325917"
     sodipodi:start="0"
     sodipodi:end="3.1415927"
     sodipodi:open="true"
     d="m 13.746283,13.28883 a 1.7786652,1.325917 0 0 1 -0.889332,1.148278 1.7786652,1.325917 0 0 1 -1.778666,0 1.7786652,1.325917 0 0 1 -0.889332,-1.148278" />
  <path
     style="fill:none;fill-opacity:1;stroke:#0089cd;stroke-width:0.54643661;stroke-linecap:round;stroke-miterlimit:4;stroke-dasharray:none;stroke-opacity:1"
     id="path830-0-8-2-8-2"
     sodipodi:type="arc"
     sodipodi:cx="15.566739"
     sodipodi:cy="13.28883"
     sodipodi:rx="1.7786652"
     sodipodi:ry="1.325917"
     sodipodi:start="0"
     sodipodi:end="3.1415927"
     sodipodi:open="true"
     d="m 17.345404,13.28883 a 1.7786652,1.325917 0 0 1 -0.889332,1.148278 1.7786652,1.325917 0 0 1 -1.778666,0 1.7786652,1.325917 0 0 1 -0.889332,-1.148278" />
  <path
     style="fill:none;fill-opacity:1;stroke:#0089cd;stroke-width:0.54643661;stroke-linecap:round;stroke-miterlimit:4;stroke-dasharray:none;stroke-opacity:1"
     id="path830-0-3-4-9-1-1"
     sodipodi:type="arc"
     sodipodi:cx="19.147678"
     sodipodi:cy="13.301647"
     sodipodi:rx="1.7786652"
     sodipodi:ry="1.325917"
     sodipodi:start="6.2639059"
     sodipodi:end="3.1415927"
     sodipodi:open="true"
     d="m 20.926013,13.276086 a 1.7786652,1.325917 0 0 1 -0.869278,1.165223 1.7786652,1.325917 0 0 1 -1.788472,0.01285 1.7786652,1.325917 0 0 1 -0.89925,-1.152515" />
</svg>
