<?xml version="1.0" encoding="UTF-8" standalone="no"?>
<!-- Generator: Adobe Illustrator 19.0.0, SVG Export Plug-In . SVG Version: 6.00 Build 0)  -->

<svg
   xmlns:dc="http://purl.org/dc/elements/1.1/"
   xmlns:cc="http://creativecommons.org/ns#"
   xmlns:rdf="http://www.w3.org/1999/02/22-rdf-syntax-ns#"
   xmlns:svg="http://www.w3.org/2000/svg"
   xmlns="http://www.w3.org/2000/svg"
   xmlns:sodipodi="http://sodipodi.sourceforge.net/DTD/sodipodi-0.dtd"
   xmlns:inkscape="http://www.inkscape.org/namespaces/inkscape"
   version="1.1"
   id="Layer_1"
   x="0px"
   y="0px"
   viewBox="0 0 22.000001 22.000001"
   xml:space="preserve"
   inkscape:version="0.91 r13725"
   sodipodi:docname="engine_temp.svg"
   width="22"
   height="22"><metadata
     id="metadata55"><rdf:RDF><cc:Work
         rdf:about=""><dc:format>image/svg+xml</dc:format><dc:type
           rdf:resource="http://purl.org/dc/dcmitype/StillImage" /><dc:title></dc:title></cc:Work></rdf:RDF></metadata><defs
     id="defs53" /><sodipodi:namedview
     pagecolor="#ffffff"
     bordercolor="#666666"
     borderopacity="1"
     objecttolerance="10"
     gridtolerance="10"
     guidetolerance="10"
     inkscape:pageopacity="0"
     inkscape:pageshadow="2"
     inkscape:window-width="1920"
     inkscape:window-height="1051"
     id="namedview51"
     showgrid="false"
     inkscape:zoom="7.9999996"
     inkscape:cx="-32.713164"
     inkscape:cy="-0.70440994"
     inkscape:window-x="0"
     inkscape:window-y="0"
     inkscape:window-maximized="1"
     inkscape:current-layer="g11"
     fit-margin-top="0"
     fit-margin-left="0"
     fit-margin-right="0"
     fit-margin-bottom="0" /><path
     style="fill:#0000ff"
     d="m 19.999591,14.229315 c -1.000141,0 -1.000141,1.325419 -2.000238,1.325419 -1.000012,0 -1.000012,-1.325419 -1.999981,-1.325419 -1.000012,0 -1.000012,1.325419 -2.000066,1.325419 -0.999969,0 -0.999969,-1.325419 -1.999981,-1.325419 -0.999969,0 -0.999969,1.325419 -1.9999367,1.325419 -0.99984,0 -0.99984,-1.325419 -1.99968,-1.325419 -0.999969,0 -0.999969,1.325419 -1.999938,1.325419 -0.999969,0 -0.999969,-1.325419 -1.999981,-1.325419 -0.999969,0 -0.999969,1.325419 -1.9999376,1.325419 C 0.9999259,15.554734 0.9999259,14.229315 0,14.229315 l 0,1.917885 0,1.304779 0,1.954286 22.000002,0 0,-0.628867 0,-2.630198 0,-0.592466 c -1.000313,-5.9e-5 -1.000313,-1.325419 -2.000411,-1.325419 z"
     id="path3"
     inkscape:connector-curvature="0" /><path
     style="fill:#e6e6e6"
     d="m 13.388878,13.028299 0,-9.6751651 c 0,-1.3861657 -1.123717,-2.50988162 -2.509882,-2.50988162 l 0,0 c -1.3861647,0 -2.5098797,1.12371592 -2.5098797,2.50988162 l 0,9.6751061 c -1.469964,0.862678 -2.457603,2.458662 -2.457603,4.286339 0,2.743457 2.224027,3.294172 4.9675427,3.294172 2.743515,0 4.967601,-0.550656 4.967601,-3.294172 -1.77e-4,-1.827618 -0.987757,-3.423661 -2.457779,-4.28628 z"
     id="path5"
     inkscape:connector-curvature="0" /><path
     style="fill:#ff0000"
     d="m 10.878938,20.608751 c -1.8164457,0 -3.2941707,-1.477726 -3.2941707,-3.294172 0,-1.163174 0.625044,-2.252606 1.631267,-2.843132 l 0.8264527,-0.48497 0,-7.0611451 c 0,-0.461271 0.375238,-0.836569 0.836569,-0.836569 0.461329,0 0.836567,0.375239 0.836567,0.836569 l 0,7.0612041 0.826454,0.48497 c 1.006222,0.590467 1.631267,1.679899 1.631267,2.843132 -1.18e-4,1.816328 -1.477961,3.294113 -3.294406,3.294113 z"
     id="path7"
     inkscape:connector-curvature="0"
     sodipodi:nodetypes="ssccssscscs" /><path
     style="fill:#000080"
     d="m 22.000002,22.000002 c -1.000142,0 -1.000142,-1.325419 -2.000326,-1.325419 -1.000183,0 -1.00014,1.325419 -2.000323,1.325419 -1.000012,0 -1.000012,-1.325419 -1.999981,-1.325419 -1.000012,0 -1.000012,1.325419 -2.000066,1.325419 -0.999969,0 -0.999969,-1.325419 -1.999981,-1.325419 -0.99997,0 -0.99997,1.325419 -1.9999387,1.325419 -0.999881,0 -0.999881,-1.325419 -1.999678,-1.325419 -0.999969,0 -0.999969,1.325419 -1.999938,1.325419 -0.999969,0 -0.999969,-1.325419 -1.999981,-1.325419 -0.999969,0 -0.999969,1.325419 -1.9999381,1.325419 C 0.9999259,22.000002 0.9999259,20.674583 0,20.674583 l 0,-3.222604 c 0.9999259,0 0.9999259,1.325419 1.9998512,1.325419 0.9999691,0 0.9999691,-1.325419 1.9999381,-1.325419 0.99997,0 0.99997,1.325419 1.999981,1.325419 0.999969,0 0.999969,-1.325419 1.999938,-1.325419 0.999883,0 0.999883,1.325419 1.999678,1.325419 0.9999687,0 0.9999687,-1.325419 1.9999387,-1.325419 0.999969,0 0.999969,1.325419 1.999981,1.325419 1.000012,0 1.000012,-1.325419 2.000067,-1.325419 1.000011,0 1.000011,1.325419 1.99998,1.325419 1.000141,0 1.000141,-1.325419 2.000324,-1.325419 1.000183,0 1.000142,1.325419 2.000325,1.325419"
     id="path9"
     inkscape:connector-curvature="0" /><g
     id="g11"
     transform="matrix(0.1,0,0,0.1,-3.5356692,-19.129097)"><path
       style="fill:#1e1d12;fill-opacity:1"
       d="m 211.03272,237.71955 -21.96153,0 c -2.88854,0 -5.229,-2.34105 -5.229,-5.22899 0,-2.88794 2.34046,-5.22899 5.229,-5.22899 l 21.96153,0 c 2.88853,0 5.22899,2.34105 5.22899,5.22899 5.9e-4,2.88794 -2.34105,5.22899 -5.22899,5.22899 z"
       id="path13"
       inkscape:connector-curvature="0" /><path
       style="fill:#1e1d12;fill-opacity:1"
       d="m 211.03272,298.37575 -21.96153,0 c -2.88854,0 -5.229,-2.34105 -5.229,-5.229 0,-2.88794 2.34046,-5.22899 5.229,-5.22899 l 21.96153,0 c 2.88853,0 5.22899,2.34105 5.22899,5.22899 0,2.88795 -2.34105,5.229 -5.22899,5.229 z"
       id="path15"
       inkscape:connector-curvature="0" /><path
       style="fill:#1e1d12;fill-opacity:1"
       d="m 211.03272,268.04794 -21.96153,0 c -2.88854,0 -5.229,-2.34105 -5.229,-5.22899 0,-2.88794 2.34046,-5.22899 5.229,-5.22899 l 21.96153,0 c 2.88853,0 5.22899,2.34105 5.22899,5.22899 5.9e-4,2.88794 -2.34105,5.22899 -5.22899,5.22899 z"
       id="path17"
       inkscape:connector-curvature="0" /></g><g
     id="g21"
     transform="translate(-245.00235,-300.59413)" /><g
     id="g23"
     transform="translate(-245.00235,-300.59413)" /><g
     id="g25"
     transform="translate(-245.00235,-300.59413)" /><g
     id="g27"
     transform="translate(-245.00235,-300.59413)" /><g
     id="g29"
     transform="translate(-245.00235,-300.59413)" /><g
     id="g31"
     transform="translate(-245.00235,-300.59413)" /><g
     id="g33"
     transform="translate(-245.00235,-300.59413)" /><g
     id="g35"
     transform="translate(-245.00235,-300.59413)" /><g
     id="g37"
     transform="translate(-245.00235,-300.59413)" /><g
     id="g39"
     transform="translate(-245.00235,-300.59413)" /><g
     id="g41"
     transform="translate(-245.00235,-300.59413)" /><g
     id="g43"
     transform="translate(-245.00235,-300.59413)" /><g
     id="g45"
     transform="translate(-245.00235,-300.59413)" /><g
     id="g47"
     transform="translate(-245.00235,-300.59413)" /><g
     id="g49"
     transform="translate(-245.00235,-300.59413)" /></svg>