<?xml version="1.0" encoding="UTF-8" standalone="no"?>
<!-- Created with Inkscape (http://www.inkscape.org/) -->

<svg
   xmlns:dc="http://purl.org/dc/elements/1.1/"
   xmlns:cc="http://creativecommons.org/ns#"
   xmlns:rdf="http://www.w3.org/1999/02/22-rdf-syntax-ns#"
   xmlns:svg="http://www.w3.org/2000/svg"
   xmlns="http://www.w3.org/2000/svg"
   xmlns:sodipodi="http://sodipodi.sourceforge.net/DTD/sodipodi-0.dtd"
   xmlns:inkscape="http://www.inkscape.org/namespaces/inkscape"
   height="22"
   id="svg2"
   inkscape:output_extension="org.inkscape.output.svg.inkscape"
   inkscape:version="0.91 r13725"
   sodipodi:docname="forbidden_area.svg"
   sodipodi:version="0.32"
   version="1.0"
   width="22.000002"
   inkscape:export-filename="C:\Users\jeremy\Pictures\svg\forbidden_area.png"
   inkscape:export-xdpi="96"
   inkscape:export-ydpi="96">
  <defs
     id="defs22">
    <inkscape:perspective
       id="perspective24"
       inkscape:persp3d-origin="290 : 193.33333 : 1"
       inkscape:vp_x="0 : 290 : 1"
       inkscape:vp_y="0 : 1000 : 0"
       inkscape:vp_z="580 : 290 : 1"
       sodipodi:type="inkscape:persp3d" />
  </defs>
  <metadata
     id="metadata10">
    <rdf:RDF>
      <cc:Work
         rdf:about="">
        <dc:format>image/svg+xml</dc:format>
        <dc:type
           rdf:resource="http://purl.org/dc/dcmitype/StillImage" />
        <cc:license
           rdf:resource="http://web.resource.org/cc/PublicDomain" />
        <dc:language>en</dc:language>
        <dc:title></dc:title>
      </cc:Work>
    </rdf:RDF>
  </metadata>
  <sodipodi:namedview
     bordercolor="#666666"
     borderopacity="1.0"
     gridtolerance="10.0"
     guidetolerance="10.0"
     id="base"
     inkscape:current-layer="svg2"
     inkscape:cx="-102.51957"
     inkscape:cy="29.027147"
     inkscape:pageopacity="0.0"
     inkscape:pageshadow="2"
     inkscape:window-height="1051"
     inkscape:window-width="1920"
     inkscape:window-x="0"
     inkscape:window-y="0"
     inkscape:zoom="2.1796875"
     objecttolerance="10.0"
     pagecolor="#ffffff"
     showgrid="false"
     inkscape:window-maximized="1"
     inkscape:measure-start="0,0"
     inkscape:measure-end="0,0"
     inkscape:lockguides="true"
     fit-margin-top="0"
     fit-margin-left="0"
     fit-margin-right="0"
     fit-margin-bottom="0" />
  <g
     id="g1327"
     transform="matrix(0.00454922,0,0,0.00454922,0,19.35754)">
    <path
       d="M 66.275,1.768 C 24.94,1.768 1.704,23.139 1.704,66.804 l 0,450.123 c 0,40.844 20.894,62.229 62.192,62.229 l 452.024,0 c 41.307,0 62.229,-20.316 62.229,-62.229 l 0,-450.123 c 0,-42.601 -20.922,-65.036 -63.522,-65.036 -0.003,0 -448.494,-0.143 -448.352,0 z"
       id="path1329"
       style="fill:#111111;fill-opacity:0;stroke:#eeeeee;stroke-width:3.40799999;stroke-opacity:0"
       inkscape:connector-curvature="0" />
  </g>
  <g
     id="g2319"
     transform="matrix(0.04083073,0,0,0.04083073,-51.826506,87.43483)">
    <path
       d=""
       id="path2323"
       style="fill:#0089cd;stroke:none"
       inkscape:connector-curvature="0" />
  </g>
  <g
     id="g2325"
     transform="matrix(0.04083073,0,0,0.04083073,-51.826506,87.43483)">
    <path
       d=""
       id="path2329"
       style="fill:#0089cd;stroke:none"
       inkscape:connector-curvature="0" />
  </g>
  <circle
     style="fill:#ffd7ff;fill-opacity:1;stroke:none;stroke-width:17.50965309;stroke-miterlimit:4;stroke-dasharray:none;stroke-opacity:1"
     id="path1494"
     cx="11.136889"
     cy="10.883088"
     r="10.863112" />
  <path
     inkscape:connector-curvature="0"
     id="path2400"
     d="m 11.076378,2.418564 c -0.777355,0 -1.408262,0.630899 -1.408262,1.408248 0,0.777349 0.630907,1.408247 1.408262,1.408247 0.777355,0 1.40826,-0.630898 1.40826,-1.408247 0,-0.777349 -0.630905,-1.408248 -1.40826,-1.408248 z m -2.223563,2.96473 c -0.741182,0 -1.111776,0.370587 -1.111776,1.111778 l 0,5.188268 c 0,0.37059 1.111776,0.37059 1.111776,0 l 0,-3.705919 c 0,-0.148204 0.370596,-0.148204 0.370596,0 l 0,11.117729 c 0,0.74117 1.852967,0.74117 1.852967,0 l 0,-7.04122 c 0,-0.14821 0.370595,-0.14821 0.370595,0 l 0,7.04122 c 0,0.74117 1.852965,0.74117 1.852965,0 l 0,-11.117729 c 0,-0.148204 0.3706,-0.148204 0.3706,0 l 0,3.705919 c 0,0.37059 1.11178,0.37059 1.11178,0 l 0,-5.188268 c 0,-0.741191 -0.74119,-1.111778 -1.48238,-1.111778 z"
     style="fill:#0089cd;fill-opacity:1;fill-rule:nonzero;stroke:none;stroke-width:2.3118937"
     sodipodi:nodetypes="cssscccccccccccccccccccc" />
  <rect
     style="fill:#ff0000;fill-opacity:1;stroke:#ff0000;stroke-width:0.81007791;stroke-linecap:round;stroke-linejoin:round;stroke-miterlimit:4;stroke-dasharray:none;stroke-opacity:1"
     id="rect1712"
     width="20.908571"
     height="3.1037464"
     x="-25.935501"
     y="-3.0437291"
     transform="matrix(-0.77458034,-0.63247553,0.63247553,-0.77458034,0,0)" />
</svg>
