<?xml version="1.0" encoding="UTF-8" standalone="no"?>
<svg
   xmlns:dc="http://purl.org/dc/elements/1.1/"
   xmlns:cc="http://creativecommons.org/ns#"
   xmlns:rdf="http://www.w3.org/1999/02/22-rdf-syntax-ns#"
   xmlns:svg="http://www.w3.org/2000/svg"
   xmlns="http://www.w3.org/2000/svg"
   xmlns:sodipodi="http://sodipodi.sourceforge.net/DTD/sodipodi-0.dtd"
   xmlns:inkscape="http://www.inkscape.org/namespaces/inkscape"
   height="24"
   id="svg6584"
   version="1.1"
   width="24"
   inkscape:version="0.91 r13725"
   sodipodi:docname="fuel_level.svg">
  <metadata
     id="metadata7">
    <rdf:RDF>
      <cc:Work
         rdf:about="">
        <dc:format>image/svg+xml</dc:format>
        <dc:type
           rdf:resource="http://purl.org/dc/dcmitype/StillImage" />
        <dc:title></dc:title>
      </cc:Work>
    </rdf:RDF>
  </metadata>
  <sodipodi:namedview
     pagecolor="#616161"
     bordercolor="#666666"
     borderopacity="1"
     objecttolerance="10"
     gridtolerance="10"
     guidetolerance="10"
     inkscape:pageopacity="1"
     inkscape:pageshadow="2"
     inkscape:window-width="1920"
     inkscape:window-height="1051"
     id="namedview5"
     showgrid="false"
     width="24"
     units="px"
     fit-margin-top="0"
     fit-margin-left="0"
     fit-margin-right="0"
     fit-margin-bottom="0"
     inkscape:zoom="3.337544"
     inkscape:cx="-62.178527"
     inkscape:cy="31.670858"
     inkscape:window-x="0"
     inkscape:window-y="0"
     inkscape:window-maximized="1"
     inkscape:current-layer="svg6584" />
  <defs
     id="defs6586" />
  <path
     d="M 5.76,2.4 C 5.228151,2.4 4.8,2.8757336 4.8,3.4666664 l 0,17.0666676 C 4.8,21.066666 5.28,21.6 5.76,21.6 l 8.64,0 c 0.48,0 0.96,-0.533334 0.96,-1.066666 l 0,-5.333334 0.48,0 c 0.48,0 0.48,0.533334 0.48,0.533334 l 0,2.133332 c 0,1.066668 0.48,1.6 1.44,1.6 0.96,0 1.44,-0.533332 1.44,-1.6 0,-1.24448 0,-4.8 0,-5.866666 0,-1.066666 -1.92,-2.1333336 -1.92,-3.2 l 0,-3.2 -0.96,0 -0.96,-1.0666664 0,-1.0666672 C 15.36,2.8757336 14.93185,2.4 14.4,2.4 Z m 0.96,2.1333336 6.72,0 0,4.2666664 -6.72,0 z m 8.64,3.2 0.96,0 c 0,0 0,0.8888528 0,1.6 0,1.0666664 1.92,2.1333324 1.92,3.2000004 l 0,5.333332 C 18.24,18.4 17.76,18.4 17.76,18.4 c 0,0 -0.48,0 -0.48,-0.533334 0,0 0,-2.133332 0,-2.666666 0,-0.533334 -0.48,-1.066666 -0.96,-1.066666 -0.32,0 -0.96,0 -0.96,0 z"
     id="rect7223-2-4-9"
     style="color:#000000;display:inline;overflow:visible;visibility:visible;fill:#ffffff;fill-opacity:1;fill-rule:nonzero;stroke:none;stroke-width:2;marker:none;enable-background:accumulate"
     inkscape:connector-curvature="0" />
</svg>
