<?xml version="1.0" encoding="UTF-8" standalone="no"?>
<!-- Generator: Adobe Illustrator 18.0.0, SVG Export Plug-In . SVG Version: 6.00 Build 0)  -->

<svg
   xmlns:dc="http://purl.org/dc/elements/1.1/"
   xmlns:cc="http://creativecommons.org/ns#"
   xmlns:rdf="http://www.w3.org/1999/02/22-rdf-syntax-ns#"
   xmlns:svg="http://www.w3.org/2000/svg"
   xmlns="http://www.w3.org/2000/svg"
   xmlns:sodipodi="http://sodipodi.sourceforge.net/DTD/sodipodi-0.dtd"
   xmlns:inkscape="http://www.inkscape.org/namespaces/inkscape"
   version="1.1"
   id="Capa_1"
   x="0px"
   y="0px"
   viewBox="0 0 9.909282 9.9092812"
   xml:space="preserve"
   width="24.000002"
   height="24"
   inkscape:version="0.91 r13725"
   sodipodi:docname="high-beam.svg"><metadata
     id="metadata51"><rdf:RDF><cc:Work
         rdf:about=""><dc:format>image/svg+xml</dc:format><dc:type
           rdf:resource="http://purl.org/dc/dcmitype/StillImage" /><dc:title></dc:title></cc:Work></rdf:RDF></metadata><defs
     id="defs49" /><sodipodi:namedview
     pagecolor="#ffffff"
     bordercolor="#666666"
     borderopacity="1"
     objecttolerance="10"
     gridtolerance="10"
     guidetolerance="10"
     inkscape:pageopacity="0"
     inkscape:pageshadow="2"
     inkscape:window-width="750"
     inkscape:window-height="480"
     id="namedview47"
     showgrid="false"
     fit-margin-top="0"
     fit-margin-left="0"
     fit-margin-right="0"
     fit-margin-bottom="0"
     inkscape:zoom="1.84375"
     inkscape:cx="-18.491043"
     inkscape:cy="53.216617"
     inkscape:window-x="0"
     inkscape:window-y="0"
     inkscape:window-maximized="0"
     inkscape:current-layer="Capa_1" /><g
     id="g3"
     style="fill:#0000ff"
     transform="matrix(0.046875,0,0,0.05073951,3.370673e-7,-0.40852513)"><path
       d="M 182.325,56.618 C 165.843,44.551 145.319,37.346 127.424,37.346 c -18.011,0 -31.322,7.262 -39.563,21.583 -6.457,11.221 -9.597,26.52 -9.597,46.771 0,20.25 3.139,35.549 9.597,46.771 8.242,14.321 21.553,21.583 39.563,21.583 17.895,0 38.419,-7.205 54.901,-19.272 18.748,-13.727 29.073,-31.158 29.073,-49.081 0,-17.926 -10.325,-35.356 -29.073,-49.083 z m -8.861,86.059 c -13.795,10.101 -31.437,16.375 -46.04,16.375 -15.904,0 -34.16,-6.064 -34.16,-53.353 0,-47.289 18.256,-53.354 34.16,-53.354 14.604,0 32.245,6.274 46.04,16.375 14.575,10.671 22.935,24.149 22.935,36.979 -0.001,12.829 -8.36,26.307 -22.935,36.978 z"
       id="path5"
       style="fill:#0000ff"
       inkscape:connector-curvature="0" /><path
       d="M 64.055,44.945 7.5,44.944 c -4.142,0 -7.5,3.358 -7.5,7.5 0,4.142 3.358,7.5 7.5,7.5 l 56.555,10e-4 c 4.142,0 7.5,-3.358 7.5,-7.5 0,-4.142 -3.358,-7.5 -7.5,-7.5 z"
       id="path7"
       style="fill:#0000ff"
       inkscape:connector-curvature="0" /><path
       d="m 64.055,72.299 -56.555,0 c -4.142,0 -7.5,3.358 -7.5,7.5 0,4.142 3.358,7.5 7.5,7.5 l 56.555,0 c 4.142,0 7.5,-3.358 7.5,-7.5 0,-4.142 -3.358,-7.5 -7.5,-7.5 z"
       id="path9"
       style="fill:#0000ff"
       inkscape:connector-curvature="0" /><path
       d="m 64.055,99.653 -56.555,0 c -4.142,0 -7.5,3.358 -7.5,7.5 0,4.142 3.358,7.5 7.5,7.5 l 56.555,0 c 4.142,0 7.5,-3.358 7.5,-7.5 0,-4.142 -3.358,-7.5 -7.5,-7.5 z"
       id="path11"
       style="fill:#0000ff"
       inkscape:connector-curvature="0" /><path
       d="m 64.055,127.008 -56.555,0 c -4.142,0 -7.5,3.358 -7.5,7.5 0,4.142 3.358,7.5 7.5,7.5 l 56.555,0 c 4.142,0 7.5,-3.358 7.5,-7.5 0,-4.142 -3.358,-7.5 -7.5,-7.5 z"
       id="path13"
       style="fill:#0000ff"
       inkscape:connector-curvature="0" /><path
       d="m 64.055,154.362 -56.555,0 c -4.142,0 -7.5,3.358 -7.5,7.5 0,4.142 3.358,7.5 7.5,7.5 l 56.555,0 c 4.142,0 7.5,-3.358 7.5,-7.5 0,-4.142 -3.358,-7.5 -7.5,-7.5 z"
       id="path15"
       style="fill:#0000ff"
       inkscape:connector-curvature="0" /></g><g
     id="g17"
     transform="translate(-100.74436,-100.74535)" /><g
     id="g19"
     transform="translate(-100.74436,-100.74535)" /><g
     id="g21"
     transform="translate(-100.74436,-100.74535)" /><g
     id="g23"
     transform="translate(-100.74436,-100.74535)" /><g
     id="g25"
     transform="translate(-100.74436,-100.74535)" /><g
     id="g27"
     transform="translate(-100.74436,-100.74535)" /><g
     id="g29"
     transform="translate(-100.74436,-100.74535)" /><g
     id="g31"
     transform="translate(-100.74436,-100.74535)" /><g
     id="g33"
     transform="translate(-100.74436,-100.74535)" /><g
     id="g35"
     transform="translate(-100.74436,-100.74535)" /><g
     id="g37"
     transform="translate(-100.74436,-100.74535)" /><g
     id="g39"
     transform="translate(-100.74436,-100.74535)" /><g
     id="g41"
     transform="translate(-100.74436,-100.74535)" /><g
     id="g43"
     transform="translate(-100.74436,-100.74535)" /><g
     id="g45"
     transform="translate(-100.74436,-100.74535)" /></svg>