<?xml version="1.0" encoding="UTF-8" standalone="no"?>
<!-- Created with Inkscape (http://www.inkscape.org/) -->

<svg
   xmlns:dc="http://purl.org/dc/elements/1.1/"
   xmlns:cc="http://creativecommons.org/ns#"
   xmlns:rdf="http://www.w3.org/1999/02/22-rdf-syntax-ns#"
   xmlns:svg="http://www.w3.org/2000/svg"
   xmlns="http://www.w3.org/2000/svg"
   xmlns:sodipodi="http://sodipodi.sourceforge.net/DTD/sodipodi-0.dtd"
   xmlns:inkscape="http://www.inkscape.org/namespaces/inkscape"
   height="22"
   id="svg2"
   inkscape:output_extension="org.inkscape.output.svg.inkscape"
   inkscape:version="0.91 r13725"
   sodipodi:docname="hotspring.svg"
   sodipodi:version="0.32"
   version="1.0"
   width="21.999998"
   inkscape:export-filename="C:\Users\jeremy\Pictures\svg\hotspring.png"
   inkscape:export-xdpi="96"
   inkscape:export-ydpi="96">
  <defs
     id="defs22">
    <inkscape:perspective
       id="perspective24"
       inkscape:persp3d-origin="290 : 193.33333 : 1"
       inkscape:vp_x="0 : 290 : 1"
       inkscape:vp_y="0 : 1000 : 0"
       inkscape:vp_z="580 : 290 : 1"
       sodipodi:type="inkscape:persp3d" />
  </defs>
  <metadata
     id="metadata10">
    <rdf:RDF>
      <cc:Work
         rdf:about="">
        <dc:format>image/svg+xml</dc:format>
        <dc:type
           rdf:resource="http://purl.org/dc/dcmitype/StillImage" />
        <cc:license
           rdf:resource="http://web.resource.org/cc/PublicDomain" />
        <dc:language>en</dc:language>
        <dc:title></dc:title>
      </cc:Work>
    </rdf:RDF>
  </metadata>
  <sodipodi:namedview
     bordercolor="#666666"
     borderopacity="1.0"
     gridtolerance="10.0"
     guidetolerance="10.0"
     id="base"
     inkscape:current-layer="svg2"
     inkscape:cx="-97.362275"
     inkscape:cy="74.321691"
     inkscape:pageopacity="0.0"
     inkscape:pageshadow="2"
     inkscape:window-height="1051"
     inkscape:window-width="1920"
     inkscape:window-x="0"
     inkscape:window-y="0"
     inkscape:zoom="1.4142136"
     objecttolerance="10.0"
     pagecolor="#ffffff"
     showgrid="false"
     inkscape:window-maximized="1"
     inkscape:measure-start="0,0"
     inkscape:measure-end="0,0"
     inkscape:lockguides="true"
     fit-margin-top="0"
     fit-margin-left="0"
     fit-margin-right="0"
     fit-margin-bottom="0" />
  <g
     id="g1327"
     transform="matrix(0.00451712,0,0,0.00451712,0,19.376185)">
    <path
       d="M 66.275,1.768 C 24.94,1.768 1.704,23.139 1.704,66.804 l 0,450.123 c 0,40.844 20.894,62.229 62.192,62.229 l 452.024,0 c 41.307,0 62.229,-20.316 62.229,-62.229 l 0,-450.123 c 0,-42.601 -20.922,-65.036 -63.522,-65.036 -0.003,0 -448.494,-0.143 -448.352,0 z"
       id="path1329"
       style="fill:#111111;fill-opacity:0;stroke:#eeeeee;stroke-width:3.40799999;stroke-opacity:0"
       inkscape:connector-curvature="0" />
  </g>
  <g
     id="g2319"
     transform="matrix(0.04083073,0,0,0.04083073,-52.528126,78.448235)">
    <path
       d=""
       id="path2323"
       style="fill:#0089cd;stroke:none"
       inkscape:connector-curvature="0" />
  </g>
  <g
     id="g2325"
     transform="matrix(0.04083073,0,0,0.04083073,-52.528126,78.448235)">
    <path
       d=""
       id="path2329"
       style="fill:#0089cd;stroke:none"
       inkscape:connector-curvature="0" />
  </g>
  <path
     style="fill:#0089cd;fill-opacity:1;stroke:none;stroke-width:11.36141205;stroke-linejoin:round;stroke-miterlimit:4;stroke-dasharray:none;stroke-opacity:1"
     d="m 3.870629,9.3119251 a 10.786412,4.7058368 0 0 0 -3.443545,3.4417399 10.786412,4.7058368 0 0 0 10.786234,4.70589 10.786412,4.7058368 0 0 0 10.78668,-4.70589 10.786412,4.7058368 0 0 0 -3.41833,-3.4286899 9.220003,4.0224525 0 0 1 1.85165,2.4112499 9.220003,4.0224525 0 0 1 -9.22,4.0225 9.220003,4.0224525 0 0 1 -9.220004,-4.0225 9.220003,4.0224525 0 0 1 1.877315,-2.4242999 z"
     id="path839"
     inkscape:connector-curvature="0" />
  <path
     style="fill:none;fill-opacity:1;stroke:#0089cd;stroke-width:0.46100014;stroke-linecap:round;stroke-linejoin:miter;stroke-miterlimit:4;stroke-dasharray:none;stroke-opacity:1"
     d="m 7.145766,4.4203251 c -1.193443,1.15392 -1.591256,1.5001 -1.591256,2.38478 0,0.88467 1.989069,1.11546 1.932238,1.80781 -0.05683,0.69236 -1.932238,2.5001799 -1.875408,2.7694199"
     id="path858"
     inkscape:connector-curvature="0"
     sodipodi:nodetypes="cssc" />
  <path
     style="fill:none;fill-opacity:1;stroke:#0089cd;stroke-width:0.46100014;stroke-linecap:round;stroke-linejoin:miter;stroke-miterlimit:4;stroke-dasharray:none;stroke-opacity:1"
     d="M 10.366565,2.6628752 C 9.173122,3.8167951 8.775309,4.1629751 8.775309,5.0476551 c 0,0.88467 1.989069,1.11546 1.932238,1.80781 -0.05683,0.69236 -1.932238,2.50017 -1.875407,2.76942"
     id="path858-9"
     inkscape:connector-curvature="0"
     sodipodi:nodetypes="cssc" />
  <path
     style="fill:none;fill-opacity:1;stroke:#0089cd;stroke-width:0.46100014;stroke-linecap:round;stroke-linejoin:miter;stroke-miterlimit:4;stroke-dasharray:none;stroke-opacity:1"
     d="m 13.587358,4.2491051 c -1.19344,1.15393 -1.59125,1.50011 -1.59125,2.38478 0,0.88468 1.98907,1.11546 1.93224,1.80782 -0.0568,0.69235 -1.93224,2.5001699 -1.87541,2.7694199"
     id="path858-9-4"
     inkscape:connector-curvature="0"
     sodipodi:nodetypes="cssc"
     inkscape:transform-center-x="1.903478"
     inkscape:transform-center-y="-1.5865438" />
  <path
     style="fill:none;fill-opacity:1;stroke:#0089cd;stroke-width:0.46100014;stroke-linecap:round;stroke-linejoin:miter;stroke-miterlimit:4;stroke-dasharray:none;stroke-opacity:1"
     d="m 16.808158,2.8743652 c -1.19344,1.1539299 -1.59125,1.5001099 -1.59125,2.3847799 0,0.88468 1.98907,1.11546 1.93224,1.80782 -0.0568,0.69235 -1.93224,2.50017 -1.87541,2.76942"
     id="path858-9-4-0"
     inkscape:connector-curvature="0"
     sodipodi:nodetypes="cssc"
     inkscape:transform-center-x="1.9034762"
     inkscape:transform-center-y="-1.5865451" />
</svg>
