<?xml version="1.0" encoding="UTF-8" standalone="no"?>
<!-- Generator: Adobe Illustrator 16.0.0, SVG Export Plug-In . SVG Version: 6.00 Build 0)  -->

<svg
   xmlns:dc="http://purl.org/dc/elements/1.1/"
   xmlns:cc="http://creativecommons.org/ns#"
   xmlns:rdf="http://www.w3.org/1999/02/22-rdf-syntax-ns#"
   xmlns:svg="http://www.w3.org/2000/svg"
   xmlns="http://www.w3.org/2000/svg"
   xmlns:sodipodi="http://sodipodi.sourceforge.net/DTD/sodipodi-0.dtd"
   xmlns:inkscape="http://www.inkscape.org/namespaces/inkscape"
   version="1.1"
   id="Capa_1"
   x="0px"
   y="0px"
   width="24"
   height="24.000002"
   viewBox="0 0 24 24.000002"
   xml:space="preserve"
   inkscape:version="0.91 r13725"
   sodipodi:docname="locked.svg"><metadata
     id="metadata43"><rdf:RDF><cc:Work
         rdf:about=""><dc:format>image/svg+xml</dc:format><dc:type
           rdf:resource="http://purl.org/dc/dcmitype/StillImage" /><dc:title></dc:title></cc:Work></rdf:RDF></metadata><defs
     id="defs41" /><sodipodi:namedview
     pagecolor="#ffffff"
     bordercolor="#666666"
     borderopacity="1"
     objecttolerance="10"
     gridtolerance="10"
     guidetolerance="10"
     inkscape:pageopacity="0"
     inkscape:pageshadow="2"
     inkscape:window-width="1920"
     inkscape:window-height="1051"
     id="namedview39"
     showgrid="false"
     fit-margin-top="0"
     fit-margin-left="0"
     fit-margin-right="0"
     fit-margin-bottom="0"
     inkscape:zoom="27.988874"
     inkscape:cx="10.459629"
     inkscape:cy="13.75885"
     inkscape:window-x="0"
     inkscape:window-y="0"
     inkscape:window-maximized="1"
     inkscape:current-layer="g5" /><g
     id="g3"
     style="fill:#00ff00"
     transform="matrix(0.04743915,0,0,0.04447385,-0.80010281,9.1777501e-7)"><g
       id="g5"
       style="fill:#00ff00"><path
         d="m 404.7299,269.8187 -206.8608,0 0,-89.9392 c 0,-19.8632 7.0256,-36.8232 21.0776,-50.8744 14.0512,-14.0512 31.0064,-21.0768 50.8744,-21.0768 19.8576,0 36.8184,7.0256 50.8696,21.0768 14.0512,14.0512 21.0768,31.0168 21.0768,50.8744 0,4.876 1.7784,99.06825 5.3424,102.62265 3.5592,3.5688 7.7752,5.336 12.6456,5.336 l 17.9888,0 c 4.8704,0 9.0856,-1.7672 12.6456,-5.336 3.5592,-3.56 5.3424,-97.75145 5.3424,-102.62265 0,-34.6592 -12.3232,-64.3144 -36.9592,-88.9608 -24.6384,-24.6368 -54.2888,-36.9544 -88.952,-36.9544 -34.6688,0 -64.3184,12.3176 -88.9552,36.9544 -24.6416,24.6464 -36.96,54.3016 -36.96,88.9608 l 0,89.9392 -8.9944,0 c -7.496,0 -13.8704,2.624 -19.1144,7.8728 -5.2488,5.2488 -7.8672,11.6136 -7.8672,19.1048 l 0,161.8952 c 0,7.5008 2.6192,13.8656 7.8672,19.1144 5.244,5.2488 11.6136,7.8728 19.1144,7.8728 l 269.8184,0 c 7.4904,0 13.8656,-2.624 19.1144,-7.8728 5.244,-5.2488 7.8688,-11.6136 7.8688,-19.1144 l 0,-161.896 c 0,-7.4856 -2.6248,-13.8552 -7.8688,-19.104 -5.2488,-5.248 -11.624,-7.8728 -19.1144,-7.8728 z m -113.7824,112.2992 0,52.7936 c 0,10.6392 -8.6264,19.2656 -19.2656,19.2656 l -3.7208,0 c -10.6392,0 -19.2656,-8.6264 -19.2656,-19.2656 l 0,-52.7936 c -11.3096,-7.0648 -18.8592,-19.588 -18.8592,-33.9048 0,-22.0856 17.9048,-39.9848 39.9856,-39.9848 22.0808,0 39.9856,17.9048 39.9856,39.9848 -8e-4,14.3216 -7.5512,26.8456 -18.86,33.9048 z"
         id="path7"
         style="fill:#ff0000"
         inkscape:connector-curvature="0"
         sodipodi:nodetypes="scscssscsscscscscscsscsscsscscsssscsscc" /></g></g><g
     id="g9"
     transform="translate(-257.8215,-257.8215)" /><g
     id="g11"
     transform="translate(-257.8215,-257.8215)" /><g
     id="g13"
     transform="translate(-257.8215,-257.8215)" /><g
     id="g15"
     transform="translate(-257.8215,-257.8215)" /><g
     id="g17"
     transform="translate(-257.8215,-257.8215)" /><g
     id="g19"
     transform="translate(-257.8215,-257.8215)" /><g
     id="g21"
     transform="translate(-257.8215,-257.8215)" /><g
     id="g23"
     transform="translate(-257.8215,-257.8215)" /><g
     id="g25"
     transform="translate(-257.8215,-257.8215)" /><g
     id="g27"
     transform="translate(-257.8215,-257.8215)" /><g
     id="g29"
     transform="translate(-257.8215,-257.8215)" /><g
     id="g31"
     transform="translate(-257.8215,-257.8215)" /><g
     id="g33"
     transform="translate(-257.8215,-257.8215)" /><g
     id="g35"
     transform="translate(-257.8215,-257.8215)" /><g
     id="g37"
     transform="translate(-257.8215,-257.8215)" /></svg>