<?xml version="1.0" encoding="UTF-8" standalone="no"?>
<!-- Generator: Adobe Illustrator 18.0.0, SVG Export Plug-In . SVG Version: 6.00 Build 0)  -->

<svg
   xmlns:dc="http://purl.org/dc/elements/1.1/"
   xmlns:cc="http://creativecommons.org/ns#"
   xmlns:rdf="http://www.w3.org/1999/02/22-rdf-syntax-ns#"
   xmlns:svg="http://www.w3.org/2000/svg"
   xmlns="http://www.w3.org/2000/svg"
   xmlns:sodipodi="http://sodipodi.sourceforge.net/DTD/sodipodi-0.dtd"
   xmlns:inkscape="http://www.inkscape.org/namespaces/inkscape"
   version="1.1"
   id="Capa_1"
   x="0px"
   y="0px"
   viewBox="0 0 9.9093289 9.9093281"
   xml:space="preserve"
   width="24.000002"
   height="24"
   inkscape:version="0.91 r13725"
   sodipodi:docname="low-beam.svg"><metadata
     id="metadata51"><rdf:RDF><cc:Work
         rdf:about=""><dc:format>image/svg+xml</dc:format><dc:type
           rdf:resource="http://purl.org/dc/dcmitype/StillImage" /><dc:title></dc:title></cc:Work></rdf:RDF></metadata><defs
     id="defs49" /><sodipodi:namedview
     pagecolor="#ffffff"
     bordercolor="#666666"
     borderopacity="1"
     objecttolerance="10"
     gridtolerance="10"
     guidetolerance="10"
     inkscape:pageopacity="0"
     inkscape:pageshadow="2"
     inkscape:window-width="750"
     inkscape:window-height="480"
     id="namedview47"
     showgrid="false"
     fit-margin-top="0"
     fit-margin-left="0"
     fit-margin-right="0"
     fit-margin-bottom="0"
     inkscape:zoom="5.2149125"
     inkscape:cx="11.044829"
     inkscape:cy="16.576287"
     inkscape:window-x="0"
     inkscape:window-y="0"
     inkscape:window-maximized="0"
     inkscape:current-layer="Capa_1" /><g
     id="g3"
     style="fill:#00ff00"
     transform="matrix(0.04687506,0,0,0.04687506,-0.07918662,0.08929423)"><path
       d="m 182.327,44.824 c -16.482,-12.068 -37.005,-19.272 -54.9,-19.272 -18.011,0 -31.322,7.262 -39.563,21.583 -6.457,11.221 -9.597,26.52 -9.597,46.771 0,20.25 3.139,35.549 9.597,46.771 8.242,14.321 21.553,21.583 39.563,21.583 17.895,0 38.418,-7.205 54.9,-19.273 18.748,-13.727 29.072,-31.158 29.072,-49.081 0,-17.925 -10.325,-35.356 -29.072,-49.082 z m -8.862,86.059 c -13.795,10.101 -31.437,16.376 -46.039,16.376 -15.904,0 -34.16,-6.064 -34.16,-53.354 0,-47.289 18.256,-53.354 34.16,-53.354 14.603,0 32.244,6.275 46.039,16.375 14.575,10.671 22.934,24.149 22.934,36.979 0,12.829 -8.359,26.307 -22.934,36.978 z"
       id="path5"
       style="fill:#00ff00"
       inkscape:connector-curvature="0" /><path
       d="M 60.703,33.943 4.148,62.22 c -3.705,1.852 -5.207,6.357 -3.354,10.062 1.314,2.628 3.962,4.147 6.714,4.147 1.127,0 2.271,-0.255 3.348,-0.794 L 67.412,47.358 C 71.117,45.506 72.619,41 70.766,37.296 68.913,33.591 64.408,32.088 60.703,33.943 Z"
       id="path7"
       style="fill:#00ff00"
       inkscape:connector-curvature="0" /><path
       d="M 60.703,61.297 4.148,89.575 c -3.705,1.852 -5.207,6.357 -3.354,10.062 1.314,2.628 3.962,4.147 6.714,4.147 1.127,0 2.271,-0.255 3.348,-0.793 L 67.412,74.713 c 3.705,-1.852 5.207,-6.357 3.354,-10.062 -1.853,-3.706 -6.358,-5.208 -10.063,-3.354 z"
       id="path9"
       style="fill:#00ff00"
       inkscape:connector-curvature="0" /><path
       d="M 60.703,88.651 4.148,116.928 c -3.705,1.852 -5.207,6.357 -3.354,10.062 1.314,2.628 3.962,4.147 6.714,4.147 1.127,0 2.271,-0.255 3.348,-0.793 l 56.556,-28.277 c 3.705,-1.852 5.207,-6.357 3.354,-10.062 -1.853,-3.706 -6.358,-5.207 -10.063,-3.354 z"
       id="path11"
       style="fill:#00ff00"
       inkscape:connector-curvature="0" /><path
       d="M 60.703,116.005 4.148,144.284 c -3.705,1.852 -5.207,6.357 -3.354,10.062 1.314,2.628 3.962,4.147 6.714,4.147 1.127,0 2.271,-0.255 3.348,-0.793 l 56.556,-28.278 c 3.705,-1.852 5.207,-6.357 3.354,-10.062 -1.853,-3.706 -6.358,-5.208 -10.063,-3.355 z"
       id="path13"
       style="fill:#00ff00"
       inkscape:connector-curvature="0" /><path
       d="M 60.703,143.36 4.148,171.638 c -3.705,1.852 -5.207,6.357 -3.354,10.062 1.314,2.628 3.962,4.147 6.714,4.147 1.127,0 2.271,-0.255 3.348,-0.793 l 56.556,-28.278 c 3.705,-1.852 5.207,-6.357 3.354,-10.062 -1.853,-3.705 -6.358,-5.208 -10.063,-3.354 z"
       id="path15"
       style="fill:#00ff00"
       inkscape:connector-curvature="0" /></g><g
     id="g17"
     transform="translate(-100.74496,-99.54709)" /><g
     id="g19"
     transform="translate(-100.74496,-99.54709)" /><g
     id="g21"
     transform="translate(-100.74496,-99.54709)" /><g
     id="g23"
     transform="translate(-100.74496,-99.54709)" /><g
     id="g25"
     transform="translate(-100.74496,-99.54709)" /><g
     id="g27"
     transform="translate(-100.74496,-99.54709)" /><g
     id="g29"
     transform="translate(-100.74496,-99.54709)" /><g
     id="g31"
     transform="translate(-100.74496,-99.54709)" /><g
     id="g33"
     transform="translate(-100.74496,-99.54709)" /><g
     id="g35"
     transform="translate(-100.74496,-99.54709)" /><g
     id="g37"
     transform="translate(-100.74496,-99.54709)" /><g
     id="g39"
     transform="translate(-100.74496,-99.54709)" /><g
     id="g41"
     transform="translate(-100.74496,-99.54709)" /><g
     id="g43"
     transform="translate(-100.74496,-99.54709)" /><g
     id="g45"
     transform="translate(-100.74496,-99.54709)" /></svg>