<?xml version="1.0" encoding="UTF-8" standalone="no"?>
<!-- Generator: Adobe Illustrator 19.1.1, SVG Export Plug-In . SVG Version: 6.00 Build 0)  -->

<svg
   xmlns:dc="http://purl.org/dc/elements/1.1/"
   xmlns:cc="http://creativecommons.org/ns#"
   xmlns:rdf="http://www.w3.org/1999/02/22-rdf-syntax-ns#"
   xmlns:svg="http://www.w3.org/2000/svg"
   xmlns="http://www.w3.org/2000/svg"
   xmlns:sodipodi="http://sodipodi.sourceforge.net/DTD/sodipodi-0.dtd"
   xmlns:inkscape="http://www.inkscape.org/namespaces/inkscape"
   version="1.1"
   id="Layer_1"
   x="0px"
   y="0px"
   viewBox="0 0 24 24"
   xml:space="preserve"
   inkscape:version="0.91 r13725"
   sodipodi:docname="oil_level.svg"
   width="24"
   height="24"><metadata
     id="metadata17"><rdf:RDF><cc:Work
         rdf:about=""><dc:format>image/svg+xml</dc:format><dc:type
           rdf:resource="http://purl.org/dc/dcmitype/StillImage" /><dc:title></dc:title></cc:Work></rdf:RDF></metadata><defs
     id="defs15" /><sodipodi:namedview
     pagecolor="#ffffff"
     bordercolor="#666666"
     borderopacity="1"
     objecttolerance="10"
     gridtolerance="10"
     guidetolerance="10"
     inkscape:pageopacity="0"
     inkscape:pageshadow="2"
     inkscape:window-width="750"
     inkscape:window-height="480"
     id="namedview13"
     showgrid="false"
     fit-margin-top="0"
     fit-margin-left="0"
     fit-margin-right="0"
     fit-margin-bottom="0"
     inkscape:zoom="3.373062"
     inkscape:cx="-6.2120081"
     inkscape:cy="9.4800346"
     inkscape:window-x="0"
     inkscape:window-y="0"
     inkscape:window-maximized="0"
     inkscape:current-layer="Layer_1" /><polyline
     style="fill:none;stroke:#ffc107;stroke-width:4;stroke-miterlimit:10"
     points="48,16 43,16 30,24 28,20 10,20 10,34   32,34 43,16 "
     id="polyline3"
     transform="matrix(0.5,0,0,0.5,0,0.66360274)" /><polyline
     style="fill:none;stroke:#ffc107;stroke-width:4;stroke-miterlimit:10"
     points="10,23 2,21 2,14 10,16 10,21 "
     id="polyline5"
     transform="matrix(0.5,0,0,0.5,0,0.66360274)" /><line
     style="fill:none;stroke:#ffc107;stroke-width:2;stroke-miterlimit:10"
     x1="10"
     y1="10.663602"
     x2="10"
     y2="8.1636019"
     id="line7" /><line
     style="fill:none;stroke:#ffc107;stroke-width:2;stroke-miterlimit:10"
     x1="7.5"
     y1="7.6636024"
     x2="12.5"
     y2="7.6636024"
     id="line9" /><path
     style="fill:#ffc107"
     d="m 24,14.663602 c 0,0.5525 -0.4475,1 -1,1 -0.5525,0 -1,-0.4475 -1,-1 0,-0.5525 1,-2.5 1,-2.5 0,0 1,1.9475 1,2.5 z"
     id="path11"
     inkscape:connector-curvature="0" /></svg>