<?xml version="1.0" encoding="UTF-8" standalone="no"?>
<!-- Svg Vector Icons : http://www.onlinewebfonts.com/icon -->

<svg
   xmlns:dc="http://purl.org/dc/elements/1.1/"
   xmlns:cc="http://creativecommons.org/ns#"
   xmlns:rdf="http://www.w3.org/1999/02/22-rdf-syntax-ns#"
   xmlns:svg="http://www.w3.org/2000/svg"
   xmlns="http://www.w3.org/2000/svg"
   xmlns:sodipodi="http://sodipodi.sourceforge.net/DTD/sodipodi-0.dtd"
   xmlns:inkscape="http://www.inkscape.org/namespaces/inkscape"
   version="1.1"
   x="0px"
   y="0px"
   viewBox="0 0 24.000004 24.000004"
   enable-background="new 0 0 1000 1000"
   xml:space="preserve"
   id="svg2"
   inkscape:version="0.91 r13725"
   sodipodi:docname="spotlight.svg"
   width="24.000004"
   height="24.000004"><defs
     id="defs28" /><sodipodi:namedview
     pagecolor="#ffffff"
     bordercolor="#666666"
     borderopacity="1"
     objecttolerance="10"
     gridtolerance="10"
     guidetolerance="10"
     inkscape:pageopacity="0"
     inkscape:pageshadow="2"
     inkscape:window-width="750"
     inkscape:window-height="480"
     id="namedview26"
     showgrid="false"
     fit-margin-top="0"
     fit-margin-left="0"
     fit-margin-right="0"
     fit-margin-bottom="0"
     inkscape:zoom="3.776"
     inkscape:cx="11.244549"
     inkscape:cy="16.857886"
     inkscape:window-x="0"
     inkscape:window-y="0"
     inkscape:window-maximized="0"
     inkscape:current-layer="svg2" /><metadata
     id="metadata4"> Svg Vector Icons : http://www.onlinewebfonts.com/icon <rdf:RDF><cc:Work
     rdf:about=""><dc:format>image/svg+xml</dc:format><dc:type
       rdf:resource="http://purl.org/dc/dcmitype/StillImage" /><dc:title></dc:title></cc:Work></rdf:RDF></metadata><g
     id="g6"
     style="fill:#00ff00"
     transform="matrix(0.0244898,0,0,0.0244898,-0.244898,-0.244898)"><path
       d="M 500,726.8 C 375,726.8 273.2,625 273.2,500 273.2,375 374.9,273.2 500,273.2 625,273.2 726.8,374.9 726.8,500 726.8,625 625,726.8 500,726.8 Z m 0,-388.2 C 411,338.6 338.6,411 338.6,500 338.6,589 411,661.4 500,661.4 589,661.4 661.4,589 661.4,500 661.4,411 589,338.6 500,338.6 Z"
       id="path8"
       style="fill:#00ff00"
       inkscape:connector-curvature="0" /><path
       d="m 185.3,532.7 -142.6,0 C 24.6,532.7 10,518 10,500 10,482 24.6,467.3 42.7,467.3 l 142.6,0 c 18,0 32.7,14.6 32.7,32.7 0,18.1 -14.7,32.7 -32.7,32.7 z"
       id="path10"
       style="fill:#00ff00"
       inkscape:connector-curvature="0" /><path
       d="m 957.3,532.7 -142.6,0 c -18,0 -32.7,-14.6 -32.7,-32.7 0,-18.1 14.6,-32.7 32.7,-32.7 l 142.6,0 c 18,0 32.7,14.6 32.7,32.7 0,18.1 -14.6,32.7 -32.7,32.7 z"
       id="path12"
       style="fill:#00ff00"
       inkscape:connector-curvature="0" /><path
       d="m 500,990 c -18,0 -32.7,-14.6 -32.7,-32.7 l 0,-142.6 c 0,-18 14.6,-32.7 32.7,-32.7 18,0 32.7,14.6 32.7,32.7 l 0,142.6 C 532.7,975.4 518,990 500,990 Z"
       id="path14"
       style="fill:#00ff00"
       inkscape:connector-curvature="0" /><path
       d="m 500,218 c -18,0 -32.7,-14.6 -32.7,-32.7 l 0,-142.6 c 0,-18 14.6,-32.7 32.7,-32.7 18,0 32.7,14.6 32.7,32.7 l 0,142.6 c 0,18 -14.7,32.7 -32.7,32.7 z"
       id="path16"
       style="fill:#00ff00"
       inkscape:connector-curvature="0" /><path
       d="m 176.6,856 c -8.4,0 -16.7,-3.2 -23.1,-9.6 -12.8,-12.8 -12.8,-33.4 0,-46.2 L 254.4,699.3 c 12.8,-12.8 33.4,-12.8 46.2,0 12.8,12.8 12.8,33.4 0,46.2 l -100.9,101 c -6.4,6.4 -14.7,9.5 -23.1,9.5 z"
       id="path18"
       style="fill:#00ff00"
       inkscape:connector-curvature="0" /><path
       d="m 722.5,310.1 c -8.4,0 -16.7,-3.2 -23.1,-9.6 -12.8,-12.8 -12.8,-33.4 0,-46.2 L 800.3,153.4 c 12.8,-12.8 33.4,-12.8 46.2,0 12.8,12.8 12.8,33.4 0,46.2 l -100.9,101 c -6.3,6.3 -14.7,9.5 -23.1,9.5 z"
       id="path20"
       style="fill:#00ff00"
       inkscape:connector-curvature="0" /><path
       d="m 823.4,856 c -8.4,0 -16.7,-3.2 -23.1,-9.6 L 699.4,745.6 c -12.8,-12.8 -12.8,-33.4 0,-46.2 12.8,-12.8 33.4,-12.8 46.2,0 l 100.9,100.9 c 12.8,12.8 12.8,33.4 0,46.2 -6.4,6.4 -14.8,9.5 -23.1,9.5 z"
       id="path22"
       style="fill:#00ff00"
       inkscape:connector-curvature="0" /><path
       d="m 277.5,310.1 c -8.4,0 -16.7,-3.2 -23.1,-9.6 L 153.5,199.7 c -12.8,-12.8 -12.8,-33.4 0,-46.2 12.8,-12.8 33.4,-12.8 46.2,0 l 100.9,100.9 c 12.8,12.8 12.8,33.4 0,46.2 -6.4,6.3 -14.8,9.5 -23.1,9.5 z"
       id="path24"
       style="fill:#00ff00"
       inkscape:connector-curvature="0" /></g></svg>